<svg width="500" height="500" viewBox="0 0 500 500" fill="none" xmlns="http://www.w3.org/2000/svg">
<path d="M329.22 43.77C329.22 43.77 255.77 22.14 183.22 65.89C110.67 109.64 73.73 191.21 42 256.67C10.27 322.13 27.85 386.24 82.82 413.17C137.79 440.1 175.59 394.57 252.99 388.63C330.39 382.69 351.13 392.35 415.62 347.03C480.11 301.71 492.38 201.57 442.21 130.39C392.04 59.21 329.22 43.77 329.22 43.77Z" fill="#E3AA92"/>
<path opacity="0.8" d="M329.22 43.77C329.22 43.77 255.77 22.14 183.22 65.89C110.67 109.64 73.73 191.21 42 256.67C10.27 322.13 27.85 386.24 82.82 413.17C137.79 440.1 175.59 394.57 252.99 388.63C330.39 382.69 351.13 392.35 415.62 347.03C480.11 301.71 492.38 201.57 442.21 130.39C392.04 59.21 329.22 43.77 329.22 43.77Z" fill="white"/>
<path d="M71.9301 424.65C71.9301 424.65 47.1601 371.89 52.5401 370.37C57.9201 368.85 69.2001 377.25 69.2001 377.25C69.2001 377.25 36.1001 288.55 44.6701 281.67C53.2401 274.79 69.2401 310 69.2401 310C69.2401 310 52.1501 255.67 54.1601 235C56.1701 214.33 77.8801 234.24 77.8801 234.24C77.8801 234.24 60.4901 160.07 76.6401 156.24C92.7901 152.41 92.2501 241.11 92.2501 241.11C92.2501 241.11 97.5501 177.64 104.02 195.23C110.49 212.82 96.8901 271.69 96.8901 271.69C96.8901 271.69 105.76 251.81 110.69 270.16C115.62 288.51 100.89 362.68 100.89 362.68C100.89 362.68 113.41 350.45 114.58 365.74C115.75 381.03 88.6601 428.44 88.6601 428.44L73.3301 430L71.9301 424.65Z" fill="#E3AA92"/>
<path opacity="0.6" d="M71.9301 424.65C71.9301 424.65 47.1601 371.89 52.5401 370.37C57.9201 368.85 69.2001 377.25 69.2001 377.25C69.2001 377.25 36.1001 288.55 44.6701 281.67C53.2401 274.79 69.2401 310 69.2401 310C69.2401 310 52.1501 255.67 54.1601 235C56.1701 214.33 77.8801 234.24 77.8801 234.24C77.8801 234.24 60.4901 160.07 76.6401 156.24C92.7901 152.41 92.2501 241.11 92.2501 241.11C92.2501 241.11 97.5501 177.64 104.02 195.23C110.49 212.82 96.8901 271.69 96.8901 271.69C96.8901 271.69 105.76 251.81 110.69 270.16C115.62 288.51 100.89 362.68 100.89 362.68C100.89 362.68 113.41 350.45 114.58 365.74C115.75 381.03 88.6601 428.44 88.6601 428.44L73.3301 430L71.9301 424.65Z" fill="white"/>
<path d="M77.2101 427C77.2101 427 56.5701 390.3 60.3901 383.41C64.2101 376.52 75.6801 392.59 75.6801 392.59C75.6801 392.59 49.6801 327.59 53.5101 321.48C57.3401 315.37 69.5701 342.13 69.5701 342.13C69.5701 342.13 65.0001 252.62 72.6201 255.67C80.2401 258.72 81.0001 301.55 81.0001 301.55C81.0001 301.55 76.4201 199.86 83.3001 202.92C90.1801 205.98 89.4201 319.14 89.4201 319.14C89.4201 319.14 103.18 275.55 105.42 295.43C107.66 315.31 87.8401 368.84 87.8401 368.84C87.8401 368.84 107 326.78 109.33 349C111.66 371.22 94.0001 412.42 94.0001 412.42C94.0001 412.42 100.88 395.6 100.88 404.77C100.88 413.94 95.5301 425.42 95.5301 425.42" stroke="#263238" stroke-linecap="round" stroke-linejoin="round"/>
<path d="M51.43 383.46L38.26 426.86H73.93L87.5 383.69L51.43 383.46Z" fill="#263238" stroke="#263238" stroke-linecap="round" stroke-linejoin="round"/>
<path d="M134.6 426.79H60.2701L51.4301 383.46H125.76L134.6 426.79Z" fill="white" stroke="#263238" stroke-linecap="round" stroke-linejoin="round"/>
<path d="M126.94 419.46H64.9401L60.3101 396.79H122.31L126.94 419.46Z" stroke="#263238" stroke-linecap="round" stroke-linejoin="round"/>
<path d="M65.64 396.88L70.23 419.36" stroke="#263238" stroke-linecap="round" stroke-linejoin="round"/>
<path d="M71.33 396.88L75.92 419.36" stroke="#263238" stroke-linecap="round" stroke-linejoin="round"/>
<path d="M77.02 396.88L81.61 419.36" stroke="#263238" stroke-linecap="round" stroke-linejoin="round"/>
<path d="M82.7 396.88L87.29 419.36" stroke="#263238" stroke-linecap="round" stroke-linejoin="round"/>
<path d="M88.39 396.88L92.98 419.36" stroke="#263238" stroke-linecap="round" stroke-linejoin="round"/>
<path d="M94.08 396.88L98.67 419.36" stroke="#263238" stroke-linecap="round" stroke-linejoin="round"/>
<path d="M99.76 396.88L104.35 419.36" stroke="#263238" stroke-linecap="round" stroke-linejoin="round"/>
<path d="M105.45 396.88L110.04 419.36" stroke="#263238" stroke-linecap="round" stroke-linejoin="round"/>
<path d="M111.13 396.88L115.72 419.36" stroke="#263238" stroke-linecap="round" stroke-linejoin="round"/>
<path d="M116.82 396.88L121.41 419.36" stroke="#263238" stroke-linecap="round" stroke-linejoin="round"/>
<path d="M61.37 401.27H123.02" stroke="#263238" stroke-linecap="round" stroke-linejoin="round"/>
<path d="M62.29 405.79H123.94" stroke="#263238" stroke-linecap="round" stroke-linejoin="round"/>
<path d="M63.22 410.32H124.86" stroke="#263238" stroke-linecap="round" stroke-linejoin="round"/>
<path d="M64.14 414.84H125.79" stroke="#263238" stroke-linecap="round" stroke-linejoin="round"/>
<path d="M87.32 392.87H59.79L59.35 390.67H86.87L87.32 392.87Z" fill="#263238"/>
<path d="M463 316H373.34C369.121 316.1 365.077 317.705 361.937 320.525C358.798 323.346 356.77 327.196 356.22 331.38L345.22 428.61H450.22L463 316Z" fill="white" stroke="#263238" stroke-linecap="round" stroke-linejoin="round"/>
<path d="M463.47 316C459.965 316.083 456.604 317.416 453.996 319.76C451.388 322.104 449.705 325.303 449.25 328.78L437.94 428.61H463.48L474.8 328.78C475.033 327.171 474.912 325.53 474.446 323.972C473.98 322.414 473.18 320.977 472.101 319.76C471.023 318.543 469.691 317.577 468.201 316.927C466.71 316.278 465.096 315.961 463.47 316Z" fill="#263238" stroke="#263238" stroke-linecap="round" stroke-linejoin="round"/>
<path d="M344.29 286.79C337.989 291.289 331.178 295.028 324 297.93C311.27 303.23 306.15 304.83 306.15 304.83L309.68 426.63H402.1C402.1 426.63 390.25 350.26 390.25 324.63C390.25 299 391.31 294 391.31 294L360.91 286.22L344.29 286.79Z" fill="#E3AA92" stroke="#263238" stroke-linecap="round" stroke-linejoin="round"/>
<path d="M334.21 291.92C331.328 312.607 329.619 333.44 329.09 354.32C328.56 385.61 334.57 427.32 334.57 427.32H266.86C275.28 411.392 281.302 394.308 284.73 376.62C289.73 351.29 293.73 308.35 294.79 307.82C295.85 307.29 331.74 294 334.21 291.92Z" fill="#263238" stroke="#263238" stroke-linecap="round" stroke-linejoin="round"/>
<path d="M303.46 427.33C303.46 427.33 296.56 380.66 296.91 369.7C297.26 358.74 299 321.62 299 321.62" stroke="#616161" stroke-linecap="round" stroke-linejoin="round"/>
<path d="M372.22 288.74C372.22 288.74 363.56 328.51 362.85 361.22C362.14 393.93 359.85 427.51 359.85 427.51H414.6C414.6 427.51 415.31 397.63 414.6 387.38C413.89 377.13 413.89 379.25 413.89 379.25L435.11 384.73C435.11 384.73 421.49 319.14 419.02 311.9C416.55 304.66 417.78 302.35 416.19 301.11C414.6 299.87 372.22 288.74 372.22 288.74Z" fill="#263238" stroke="#263238" stroke-linecap="round" stroke-linejoin="round"/>
<path d="M273.33 400.29C274.757 402.478 276.435 404.492 278.33 406.29C280.76 408.37 285.97 407.29 288.74 410.13C291.51 412.97 288.48 421.64 284.98 424.67C278.98 429.84 282.16 414.15 282.16 414.15C280.044 415.6 277.707 416.698 275.24 417.4C271.84 418.18 263.09 415.52 260.16 415.4C257.23 415.28 253.16 414.72 251.6 411.46C250.04 408.2 259.72 404.27 264.02 402.71C267.057 401.667 270.17 400.858 273.33 400.29Z" fill="white" stroke="#263238" stroke-linecap="round" stroke-linejoin="round"/>
<path d="M254.81 404.89C253.885 404.643 252.909 404.673 252 404.975C251.092 405.277 250.293 405.839 249.7 406.59C247.7 409.22 243.7 421.1 244.87 423.39C246.04 425.68 249.07 422.47 250.51 418.7C251.124 416.883 251.943 415.142 252.95 413.51C252.95 413.51 254.53 414.28 255.64 412.22C256.75 410.16 257.87 407.07 254.81 404.89Z" fill="white" stroke="#263238" stroke-linecap="round" stroke-linejoin="round"/>
<path d="M260.47 402.82C259.501 402.262 258.369 402.057 257.266 402.24C256.164 402.422 255.158 402.98 254.42 403.82C251.61 406.82 253.54 419.43 255.03 423.29C256.52 427.15 259.34 426.67 259.76 424.29C260.18 421.91 260.66 410.04 260.81 407.29C260.934 405.791 260.819 404.283 260.47 402.82Z" fill="white" stroke="#263238" stroke-linecap="round" stroke-linejoin="round"/>
<path d="M266.47 401.46C265.514 400.858 264.37 400.627 263.255 400.812C262.14 400.996 261.132 401.582 260.42 402.46C257.63 405.63 259.69 418.97 261.22 423.07C262.75 427.17 265.57 426.69 265.97 424.14C266.37 421.59 266.73 409.06 266.85 406.14C266.952 404.57 266.824 402.993 266.47 401.46Z" fill="white" stroke="#263238" stroke-linecap="round" stroke-linejoin="round"/>
<path d="M275.25 403.08C275.25 403.08 272.92 397.87 269.12 398.73C265.32 399.59 264.12 404.73 264.82 412.53C265.52 420.33 266.98 426.53 269.1 426.75C271.22 426.97 273.53 422.26 273.95 416.17C274.37 410.08 275 406.44 275 406.44" fill="white"/>
<path d="M275.25 403.08C275.25 403.08 272.92 397.87 269.12 398.73C265.32 399.59 264.12 404.73 264.82 412.53C265.52 420.33 266.98 426.53 269.1 426.75C271.22 426.97 273.53 422.26 273.95 416.17C274.37 410.08 275 406.44 275 406.44" stroke="#263238" stroke-linecap="round" stroke-linejoin="round"/>
<path d="M324.11 348.57H300.54V384.75H324.11V348.57Z" fill="#E3AA92" stroke="#263238" stroke-linecap="round" stroke-linejoin="round"/>
<path d="M313.97 338.03H309.63V354.77H313.97V338.03Z" fill="white" stroke="#263238" stroke-linecap="round" stroke-linejoin="round"/>
<path d="M316.45 358.7H306.32V371.93H316.45V358.7Z" fill="white" stroke="#263238" stroke-linecap="round" stroke-linejoin="round"/>
<path d="M304.67 375.86H318.52" stroke="#263238" stroke-linecap="round" stroke-linejoin="round"/>
<path d="M302.6 378.75H320.38" stroke="#263238" stroke-linecap="round" stroke-linejoin="round"/>
<path d="M341.82 281.67C341.82 281.67 334.21 286.79 332.82 290.86C331.43 294.93 325.57 312.25 323.27 318.79C320.97 325.33 307.89 330.99 309.66 332.23C311.43 333.47 328.58 335.05 328.58 335.05C328.58 335.05 332.47 350.26 333.35 354.15C334.23 358.04 339.54 369.88 339.54 369.88C339.54 369.88 355.27 350.96 357.75 345.88C359.454 342.445 361.402 339.136 363.58 335.98C363.58 335.98 370.3 337.57 374.58 338.28C378.86 338.99 390.49 340.04 389.96 338.1C389.43 336.16 383.6 327.67 381.3 319.36C379 311.05 380.41 292.84 377.59 285.77C374.77 278.7 368.59 277.64 366.45 277.11C364.31 276.58 345 278.66 341.82 281.67Z" fill="#E3AA92" stroke="#263238" stroke-linecap="round" stroke-linejoin="round"/>
<path d="M339.34 276.19C339.34 276.19 341.64 289.09 341.34 299.52C341.04 309.95 337.27 333.29 337.45 345.31C337.629 353.294 338.277 361.261 339.39 369.17C339.39 369.17 356.72 345.31 363.08 325.86C369.44 306.41 371.21 289.8 371.21 288.56C371.21 287.32 371.56 258.51 371.56 258.51C371.56 258.51 353.13 277.78 339.34 276.19Z" fill="white" stroke="#263238" stroke-linecap="round" stroke-linejoin="round"/>
<path d="M371.37 270.74C371.44 264.26 371.51 258.51 371.51 258.51C371.51 258.51 353.13 277.78 339.34 276.19C339.34 276.19 339.99 279.82 340.54 284.79C342.344 286.026 344.346 286.942 346.46 287.5C352.84 288.78 359.99 285.21 364.84 279.08C366.63 276.82 369 273.74 371.37 270.74Z" fill="#263238" stroke="#263238" stroke-linecap="round" stroke-linejoin="round"/>
<path d="M383.98 212.19C393.695 212.19 401.57 204.395 401.57 194.78C401.57 185.165 393.695 177.37 383.98 177.37C374.265 177.37 366.39 185.165 366.39 194.78C366.39 204.395 374.265 212.19 383.98 212.19Z" fill="#263238" stroke="#263238" stroke-linecap="round" stroke-linejoin="round"/>
<path d="M312.75 225.2C312.75 225.2 303.31 222.64 301.75 217.54C300.19 212.44 305.84 194.54 324.22 185.37C342.6 176.2 359.46 181.28 366.86 183.32C374.26 185.36 379.63 189.2 384.48 202.73C389.33 216.26 389.58 226.73 388.05 231.83C387.14 234.879 386.031 237.866 384.73 240.77C384.73 240.77 375.29 241.77 372.73 237.96C370.17 234.15 371.2 214.96 360.22 210.39C349.24 205.82 328.31 208.39 323.22 212.94C318.13 217.49 312.75 225.2 312.75 225.2Z" fill="#263238" stroke="#263238" stroke-linecap="round" stroke-linejoin="round"/>
<path d="M311.22 221.88C311.22 221.88 313.52 236.43 313.52 244.34C313.52 252.25 319.9 263.24 323.22 266.34C326.54 269.44 337.52 279.87 343.9 281.15C350.28 282.43 357.43 278.85 362.28 272.72C367.13 266.59 376.58 254.34 376.58 254.34C378.687 254.575 380.81 254.065 382.581 252.9C384.353 251.735 385.661 249.988 386.28 247.96C388.84 240.55 387.56 232.13 383.22 231.11C378.88 230.09 375.82 235.19 375.82 235.19C375.82 235.19 372.24 221.41 367.65 214.51L361.01 204.51L369.48 193.92C369.573 193.805 369.64 193.672 369.68 193.53C369.719 193.387 369.728 193.239 369.708 193.092C369.687 192.946 369.637 192.806 369.56 192.68C369.483 192.554 369.381 192.445 369.26 192.36C369.032 192.197 368.75 192.128 368.473 192.167C368.195 192.206 367.944 192.35 367.77 192.57L359.48 203.24C359.48 203.24 343.14 200.43 328.84 207.58C314.54 214.73 311.22 221.88 311.22 221.88Z" fill="white" stroke="#263238" stroke-linecap="round" stroke-linejoin="round"/>
<path d="M363.68 236.25L361.38 239.32" stroke="#263238" stroke-linecap="round" stroke-linejoin="round"/>
<path d="M332.16 253.79C332.16 253.79 332.67 255.32 335.99 256.09C337.539 256.45 339.159 256.353 340.654 255.81C342.149 255.266 343.454 254.301 344.41 253.03" stroke="#263238" stroke-linecap="round" stroke-linejoin="round"/>
<path d="M336 262C339.148 262.71 342.427 262.589 345.514 261.65C348.601 260.71 351.391 258.984 353.61 256.64C353.61 256.64 351.32 266.34 346.72 268.13C342.12 269.92 341.87 265.06 341.87 265.06L336 262Z" stroke="#263238" stroke-linecap="round" stroke-linejoin="round"/>
<path d="M345.18 242.56C347.295 240.568 349.87 239.13 352.675 238.373C355.481 237.616 358.43 237.563 361.26 238.22" stroke="#263238" stroke-width="2" stroke-linecap="round" stroke-linejoin="round"/>
<path d="M328.58 242.05C328.58 242.05 322.97 236.43 317.09 239.49" stroke="#263238" stroke-width="2" stroke-linecap="round" stroke-linejoin="round"/>
<path d="M315.31 238.22L318.11 241.03" stroke="#263238" stroke-linecap="round" stroke-linejoin="round"/>
<path d="M343.39 228.77C343.39 228.77 351 220 362 228.26" stroke="#263238" stroke-linecap="round" stroke-linejoin="round"/>
<path d="M328.07 228.51C328.07 228.51 321.18 223.15 314.28 229.28" stroke="#263238" stroke-linecap="round" stroke-linejoin="round"/>
<path d="M351.19 241.19C351.2 241.439 351.134 241.686 351.002 241.897C350.87 242.108 350.677 242.275 350.448 242.375C350.22 242.475 349.966 242.504 349.721 242.458C349.476 242.411 349.251 242.292 349.074 242.116C348.898 241.939 348.779 241.714 348.732 241.469C348.686 241.224 348.715 240.97 348.815 240.742C348.915 240.513 349.082 240.32 349.293 240.188C349.504 240.056 349.751 239.99 350 240C350.312 240.012 350.607 240.142 350.828 240.362C351.048 240.583 351.178 240.878 351.19 241.19Z" fill="#263238"/>
<path d="M322 240.12C322.002 240.366 321.931 240.606 321.796 240.812C321.661 241.017 321.468 241.177 321.241 241.273C321.015 241.368 320.765 241.394 320.524 241.347C320.283 241.301 320.061 241.183 319.887 241.01C319.712 240.837 319.593 240.616 319.545 240.376C319.496 240.135 319.52 239.885 319.613 239.658C319.707 239.431 319.866 239.236 320.07 239.1C320.274 238.963 320.514 238.89 320.76 238.89C321.087 238.89 321.401 239.019 321.633 239.25C321.866 239.48 321.997 239.793 322 240.12Z" fill="#263238"/>
<path d="M382.33 215.22C382.33 215.22 383.21 226.71 381.09 235.37L384.45 236.43C384.45 236.43 387.1 223.17 385.86 215.75L382.33 215.22Z" fill="#E3AA92" stroke="#263238" stroke-linecap="round" stroke-linejoin="round"/>
<path d="M359.49 181.61C363.187 183.455 366.481 186.014 369.183 189.139C371.885 192.265 373.94 195.895 375.23 199.82C379.29 212.9 378.76 216.97 381.23 218.38C383.7 219.79 388.48 220.68 388.65 217.5C388.82 214.32 387.72 200.13 380.65 191.33C375.35 184.63 363.91 181.79 359.49 181.61Z" fill="#E3AA92" stroke="#263238" stroke-linecap="round" stroke-linejoin="round"/>
<path d="M383.73 232.84C378.64 231.28 373.05 234.84 371.23 240.75C369.55 246.22 371.69 251.8 376.03 253.86C372.844 261.957 368.105 269.352 362.08 275.63C360.907 275.485 359.723 275.785 358.76 276.47C356.94 277.7 356.14 279.71 356.99 280.97C357.84 282.23 359.99 282.25 361.82 281.03C363.65 279.81 364.3 278.03 363.72 276.81C369.88 270.38 374.712 262.799 377.94 254.5C382.8 255.5 387.94 252.02 389.65 246.39C391.47 240.47 388.82 234.4 383.73 232.84Z" fill="#E3AA92" stroke="#263238" stroke-linecap="round" stroke-linejoin="round"/>
<path d="M388.05 244.4C387.19 248.18 383.78 250.64 380.43 249.88C377.08 249.12 375.06 245.43 375.92 241.65C376.78 237.87 380.19 235.41 383.54 236.16C386.89 236.91 388.91 240.61 388.05 244.4Z" fill="#E3AA92" stroke="#263238" stroke-linecap="round" stroke-linejoin="round"/>
<path d="M387.07 306.77C387.07 306.77 382.12 294.4 381.07 292.1C380.02 289.8 388.67 276.19 390.07 274.24C391.47 272.29 394.13 268.24 394.13 267.35C394.13 266.46 384.06 256.56 381.93 254.97C379.8 253.38 376.28 256.97 376.28 256.97C376.28 256.97 367.09 269.17 367.09 270.58C367.09 271.99 371.5 276.41 371.5 276.41C371.5 276.41 364.61 286.31 365.5 290.2C366.39 294.09 369.92 297.45 369.92 297.45L374.87 316.54L387.07 306.77Z" fill="white" stroke="#263238" stroke-linecap="round" stroke-linejoin="round"/>
<path d="M371.51 276.36C371.51 276.36 377.51 271.59 376.99 270.18C376.784 269.761 376.453 269.417 376.043 269.195C375.632 268.973 375.163 268.884 374.7 268.94" stroke="#263238" stroke-linecap="round" stroke-linejoin="round"/>
<path d="M375.76 258.51C376.29 258.51 391.84 268.76 391.49 270.51C391.181 271.802 390.707 273.049 390.08 274.22" stroke="#263238" stroke-linecap="round" stroke-linejoin="round"/>
<path d="M377.53 256.92C377.53 256.92 392.2 266.11 392.53 267.7C392.596 268.222 392.534 268.753 392.349 269.246C392.164 269.739 391.863 270.179 391.47 270.53" stroke="#263238" stroke-linecap="round" stroke-linejoin="round"/>
<path d="M379.12 255.33C379.12 255.33 394.5 265.76 394.12 267.33C393.698 268.617 393.041 269.814 392.18 270.86" stroke="#263238" stroke-linecap="round" stroke-linejoin="round"/>
<path d="M389.19 305.36L365.5 319C365.5 319 396.26 392.18 401.92 402.08C407.58 411.98 422.78 414.28 430.74 411.63C438.7 408.98 442.58 393.07 439.93 386.35C437.28 379.63 418.18 350.26 409 335.58C399.82 320.9 389.19 305.36 389.19 305.36Z" fill="#263238" stroke="#263238" stroke-linecap="round" stroke-linejoin="round"/>
<path d="M376.67 344C376.67 344 402.67 394 409.33 404" stroke="#616161" stroke-linecap="round" stroke-linejoin="round"/>
<path d="M391.33 311.29L428 367.29" stroke="#616161" stroke-linecap="round" stroke-linejoin="round"/>
<path d="M287.35 238.86V206.67C287.35 205.429 286.857 204.238 285.979 203.361C285.102 202.483 283.911 201.99 282.67 201.99H204.16C202.919 201.99 201.728 202.483 200.851 203.361C199.973 204.238 199.48 205.429 199.48 206.67V238.86C199.48 240.101 199.973 241.292 200.851 242.169C201.728 243.047 202.919 243.54 204.16 243.54H271.58L286.93 258.31L283.86 243.37C284.857 243.108 285.74 242.524 286.371 241.708C287.002 240.892 287.346 239.891 287.35 238.86Z" fill="white" stroke="#263238" stroke-linecap="round" stroke-linejoin="round"/>
<path d="M227.91 225.64C229.848 225.64 231.42 224.069 231.42 222.13C231.42 220.191 229.848 218.62 227.91 218.62C225.971 218.62 224.4 220.191 224.4 222.13C224.4 224.069 225.971 225.64 227.91 225.64Z" fill="#263238"/>
<path d="M243.41 225.64C245.348 225.64 246.92 224.069 246.92 222.13C246.92 220.191 245.348 218.62 243.41 218.62C241.471 218.62 239.9 220.191 239.9 222.13C239.9 224.069 241.471 225.64 243.41 225.64Z" fill="#263238"/>
<path d="M258.92 225.64C260.858 225.64 262.43 224.069 262.43 222.13C262.43 220.191 260.858 218.62 258.92 218.62C256.981 218.62 255.41 220.191 255.41 222.13C255.41 224.069 256.981 225.64 258.92 225.64Z" fill="#263238"/>
<path d="M212.23 238.12V230.92L204.66 229.24C204.248 227.778 203.667 226.368 202.93 225.04L207.08 218.5L202 213.41L195.46 217.57C194.138 216.826 192.731 216.245 191.27 215.84L189.58 208.27H182.38L180.7 215.84C179.235 216.243 177.824 216.824 176.5 217.57L170 213.41L164.91 218.5L169 225C168.254 226.324 167.673 227.735 167.27 229.2L159.7 230.88V238.08L167.27 239.77C167.672 241.245 168.253 242.666 169 244L164.84 250.54L169.93 255.63L176.47 251.47C177.796 252.215 179.206 252.799 180.67 253.21L182.35 260.77H189.55L191.24 253.21C192.7 252.797 194.107 252.213 195.43 251.47L201.97 255.63L207.06 250.54L202.93 244C203.665 242.674 204.246 241.268 204.66 239.81L212.23 238.12ZM186 243.82C184.161 243.82 182.363 243.275 180.833 242.253C179.304 241.231 178.112 239.778 177.408 238.079C176.704 236.38 176.52 234.51 176.879 232.706C177.237 230.902 178.123 229.245 179.424 227.944C180.724 226.643 182.382 225.758 184.186 225.399C185.99 225.04 187.86 225.224 189.559 225.928C191.258 226.632 192.711 227.824 193.733 229.353C194.755 230.883 195.3 232.681 195.3 234.52C195.3 235.741 195.059 236.951 194.592 238.079C194.125 239.207 193.44 240.233 192.576 241.096C191.712 241.96 190.687 242.645 189.559 243.112C188.431 243.579 187.221 243.82 186 243.82Z" fill="#263238" stroke="#263238" stroke-linecap="round" stroke-linejoin="round"/>
<path d="M148.77 427.24H314.17V420.57H148.77V427.24Z" fill="white" stroke="#263238" stroke-linecap="round" stroke-linejoin="round"/>
<path d="M123.37 427.24H267.53V420.57H123.37V427.24Z" fill="white" stroke="#263238" stroke-linecap="round" stroke-linejoin="round"/>
<path d="M120.58 408.7H258.5L243.63 303.41H105.71L120.58 408.7Z" fill="white" stroke="#263238" stroke-linecap="round" stroke-linejoin="round"/>
<path d="M114.87 408.7H252.79L237.92 303.41H100L114.87 408.7Z" fill="#263238" stroke="#263238" stroke-linecap="round" stroke-linejoin="round"/>
<path d="M157.13 359.76L143.29 427.24H178.88L192.72 359.76H157.13ZM181.27 379.76C181.212 380.043 181.058 380.298 180.834 380.48C180.61 380.662 180.329 380.761 180.04 380.76L159.88 380.56C159.691 380.558 159.505 380.513 159.336 380.429C159.167 380.345 159.019 380.224 158.903 380.075C158.787 379.927 158.706 379.754 158.665 379.569C158.625 379.385 158.627 379.194 158.67 379.01L160.49 371.44C160.548 371.157 160.702 370.902 160.926 370.72C161.151 370.538 161.431 370.439 161.72 370.44L181.89 370.63C182.078 370.634 182.263 370.68 182.43 370.764C182.598 370.849 182.745 370.97 182.86 371.118C182.975 371.267 183.056 371.439 183.095 371.623C183.135 371.807 183.133 371.997 183.09 372.18L181.27 379.76Z" fill="white" stroke="#263238" stroke-linecap="round" stroke-linejoin="round"/>
<path d="M19.25 432.08L484.75 432.08V427.24L19.25 427.24V432.08Z" fill="#263238" stroke="#263238" stroke-linecap="round" stroke-linejoin="round"/>
<path d="M352.86 107.53L349.92 99H320.39L323.06 149H391.72V107.53H352.86Z" stroke="#263238" stroke-linecap="round" stroke-linejoin="round"/>
<path d="M391.72 149L397.58 103.19H351.08" stroke="#263238" stroke-linecap="round" stroke-linejoin="round"/>
<path d="M193.08 132.304C197.438 113.726 185.91 95.1343 167.333 90.7771C148.755 86.4198 130.163 97.9474 125.806 116.525C121.449 135.102 132.976 153.694 151.554 158.051C170.131 162.409 188.723 150.881 193.08 132.304Z" stroke="#263238" stroke-linecap="round" stroke-linejoin="round"/>
<path d="M186.531 130.908C190.108 115.954 180.884 100.933 165.93 97.3564C150.977 93.7801 135.955 103.003 132.379 117.957C128.802 132.911 138.026 147.933 152.98 151.509C167.933 155.086 182.955 145.862 186.531 130.908Z" stroke="#263238" stroke-linecap="round" stroke-linejoin="round"/>
<path d="M163.14 124.42C163.14 125.15 162.923 125.863 162.518 126.47C162.113 127.077 161.536 127.55 160.862 127.829C160.188 128.108 159.446 128.181 158.73 128.039C158.014 127.897 157.357 127.545 156.841 127.029C156.325 126.513 155.973 125.856 155.831 125.14C155.688 124.424 155.761 123.682 156.041 123.008C156.32 122.334 156.793 121.757 157.4 121.352C158.007 120.946 158.72 120.73 159.45 120.73C160.429 120.73 161.367 121.119 162.059 121.811C162.751 122.503 163.14 123.441 163.14 124.42Z" stroke="#263238" stroke-linecap="round" stroke-linejoin="round"/>
<path d="M159.34 98.67V105.56" stroke="#263238" stroke-linecap="round" stroke-linejoin="round"/>
<path d="M159.34 143.42V150.3" stroke="#263238" stroke-linecap="round" stroke-linejoin="round"/>
<path d="M141.09 106.23L145.95 111.1" stroke="#263238" stroke-linecap="round" stroke-linejoin="round"/>
<path d="M172.73 137.87L177.59 142.74" stroke="#263238" stroke-linecap="round" stroke-linejoin="round"/>
<path d="M133.53 124.49H140.41" stroke="#263238" stroke-linecap="round" stroke-linejoin="round"/>
<path d="M178.27 124.49H185.15" stroke="#263238" stroke-linecap="round" stroke-linejoin="round"/>
<path d="M141.09 142.74L145.95 137.87" stroke="#263238" stroke-linecap="round" stroke-linejoin="round"/>
<path d="M172.73 111.1L177.59 106.23" stroke="#263238" stroke-linecap="round" stroke-linejoin="round"/>
<path d="M155.76 124.42H145.57" stroke="#263238" stroke-linecap="round" stroke-linejoin="round"/>
<path d="M159.45 120.73V107.28" stroke="#263238" stroke-linecap="round" stroke-linejoin="round"/>
<path d="M295.08 99H215.75V149.67H295.08V99Z" stroke="#263238" stroke-linecap="round" stroke-linejoin="round"/>
<path d="M215.75 99L255.41 124.33L295.08 99" stroke="#263238" stroke-linecap="round" stroke-linejoin="round"/>
<path d="M215.75 149.67L245.75 122.33" stroke="#263238" stroke-linecap="round" stroke-linejoin="round"/>
<path d="M294.7 149.67L264.7 122.33" stroke="#263238" stroke-linecap="round" stroke-linejoin="round"/>
</svg>
