<svg width="1789" height="1830" viewBox="0 0 1789 1830" fill="none" xmlns="http://www.w3.org/2000/svg">
<path d="M368.303 1788.86C367.359 1788.86 366.482 1788.26 366.174 1787.31C365.79 1786.14 366.432 1784.87 367.608 1784.49C379.199 1780.7 1513.31 1410.07 1774.7 1306.25H18.383C17.146 1306.25 16.1429 1305.25 16.1429 1304.01C16.1429 1302.78 17.146 1301.77 18.383 1301.77H1786.28C1787.35 1301.77 1788.27 1302.53 1788.48 1303.58C1788.69 1304.63 1788.12 1305.68 1787.13 1306.09C1547.69 1403.55 380.758 1784.91 368.999 1788.75C368.768 1788.82 368.533 1788.86 368.303 1788.86Z" fill="black"/>
<path d="M750.022 449.879C745.056 449.879 740.443 447.108 738.17 442.503L726.696 419.242C725.221 416.25 722.189 414.259 718.833 414.373C714.423 414.432 709.874 414.279 705.362 413.953C702.065 413.754 698.856 415.44 697.2 418.354L684.375 440.932C681.318 446.315 675.018 448.835 669.049 447.066L648.991 441.107C643.016 439.331 639.142 433.779 639.571 427.604L641.369 401.746C641.6 398.423 639.863 395.232 636.943 393.615C633.042 391.452 629.215 389.122 625.567 386.69C622.79 384.837 619.126 384.743 616.235 386.436L593.756 399.615C588.395 402.756 581.669 401.813 577.394 397.323L563.024 382.228C558.734 377.722 558.177 370.987 561.667 365.851L576.283 344.34C578.155 341.584 578.28 337.992 576.602 335.19C574.329 331.397 572.18 327.449 570.215 323.455C568.769 320.515 565.717 318.566 562.286 318.673L536.109 318.944C536.062 318.944 536.015 318.944 535.968 318.944C529.798 318.944 524.511 314.805 523.081 308.836L518.248 288.644C516.805 282.618 519.715 276.513 525.323 273.798L548.786 262.441C551.801 260.982 553.726 257.937 553.689 254.682C553.641 250.274 553.781 245.781 554.106 241.323C554.344 238.066 552.601 234.901 549.662 233.26L526.872 220.538C521.432 217.504 518.884 211.241 520.673 205.305L526.673 185.432C528.461 179.511 534.052 175.707 540.268 176.098L566.363 177.896C569.724 178.147 572.961 176.406 574.593 173.512C576.762 169.664 579.111 165.871 581.573 162.242C583.429 159.508 583.526 155.898 581.822 153.046L568.509 130.761C565.325 125.43 566.275 118.741 570.817 114.493L586.041 100.262C590.572 96.0268 597.344 95.4798 602.509 98.9258L624.228 113.424C627.025 115.292 630.671 115.423 633.514 113.748C637.358 111.488 641.341 109.362 645.35 107.429C648.313 105.998 650.203 102.927 650.166 99.6018L649.875 73.6588C649.806 67.4708 653.996 62.1528 660.064 60.7288L680.434 55.9518C686.5 54.5298 692.638 57.4198 695.377 62.9688L706.852 86.2298C708.314 89.1958 711.361 91.0988 714.633 91.0988C714.66 91.0988 714.688 91.0988 714.716 91.0988C719.173 91.0438 723.702 91.1928 728.188 91.5188C731.501 91.7358 734.696 90.0318 736.349 87.1178L749.172 64.5398C752.23 59.1568 758.538 56.6428 764.499 58.4058L784.556 64.3648C790.531 66.1408 794.405 71.6928 793.976 77.8678L792.179 103.726C791.948 107.049 793.685 110.24 796.605 111.857C800.507 114.02 804.334 116.35 807.98 118.782C810.753 120.633 814.419 120.731 817.312 119.036L839.791 105.857C845.148 102.714 851.876 103.656 856.153 108.149L870.523 123.247C874.812 127.751 875.371 134.484 871.881 139.62L857.261 161.138C855.392 163.89 855.281 167.503 856.98 170.343C859.236 174.116 861.365 178.025 863.303 181.963C864.755 184.909 867.834 186.802 871.166 186.802C871.196 186.802 871.226 186.802 871.257 186.802L897.438 186.531C903.701 186.511 909.026 190.624 910.466 196.641L915.299 216.831C916.742 222.855 913.832 228.96 908.226 231.677L884.761 243.034C881.746 244.493 879.821 247.538 879.858 250.793C879.906 255.201 879.766 259.694 879.441 264.152C879.203 267.409 880.946 270.574 883.885 272.215L906.675 284.935C912.115 287.971 914.663 294.236 912.874 300.168L906.874 320.041C905.086 325.964 899.498 329.757 893.279 329.377L867.184 327.579C863.826 327.341 860.588 329.069 858.955 331.963C856.775 335.826 854.427 339.617 851.974 343.233C850.118 345.967 850.021 349.577 851.725 352.429L865.037 374.714C868.223 380.045 867.275 386.734 862.729 390.98L847.506 405.214C842.973 409.449 836.201 410 831.037 406.546L809.315 392.05C806.522 390.182 802.855 390.073 799.975 391.761C796.188 393.988 792.245 396.094 788.258 398.021C785.259 399.469 783.346 402.551 783.383 405.872L783.674 431.817C783.743 438.007 779.552 443.323 773.483 444.745L753.114 449.522C752.081 449.76 751.043 449.876 750.022 449.879ZM718.921 409.892C723.882 409.892 728.501 412.773 730.714 417.259L742.188 440.52C744 444.195 748.081 446.102 752.091 445.155L772.461 440.378C776.472 439.44 779.241 435.935 779.195 431.86L778.904 405.915C778.847 400.866 781.754 396.183 786.31 393.983C790.187 392.108 794.023 390.059 797.707 387.893C802.058 385.342 807.591 385.507 811.803 388.317L833.526 402.815C836.953 405.105 841.442 404.744 844.448 401.936L859.671 387.702C862.661 384.909 863.287 380.51 861.192 377.006L847.88 354.72C845.286 350.38 845.438 344.881 848.267 340.712C850.651 337.199 852.935 333.513 855.053 329.757C857.529 325.365 862.434 322.79 867.492 323.103L893.587 324.901C897.702 325.212 901.405 322.652 902.585 318.741L908.585 298.868C909.763 294.968 908.079 290.845 904.492 288.841L881.701 276.121C877.248 273.636 874.608 268.806 874.972 263.819C875.289 259.488 875.425 255.122 875.378 250.839C875.322 245.856 878.239 241.208 882.81 238.996L906.275 227.639C909.972 225.85 911.892 221.831 910.943 217.868L906.11 197.678C905.167 193.739 901.666 191.006 897.579 191.006C897.547 191.006 897.517 191.006 897.485 191.006L871.304 191.277C871.259 191.277 871.213 191.277 871.167 191.277C866.14 191.277 861.488 188.407 859.286 183.936C857.4 180.108 855.332 176.309 853.137 172.64C850.546 168.309 850.711 162.805 853.557 158.619L868.177 137.101C870.471 133.724 870.102 129.296 867.28 126.332L852.91 111.234C850.076 108.259 845.614 107.636 842.058 109.716L819.579 122.895C815.216 125.456 809.687 125.299 805.495 122.506C801.951 120.141 798.231 117.875 794.434 115.773C789.999 113.314 787.359 108.463 787.711 103.412L789.508 77.5548C789.79 73.4888 787.23 69.8308 783.281 68.6588L763.223 62.6998C759.262 61.5168 755.088 63.1918 753.067 66.7508L740.244 89.3298C737.739 93.7378 732.869 96.3798 727.862 95.9838C723.499 95.6688 719.098 95.5228 714.759 95.5768C709.84 95.6288 705.066 92.7358 702.832 88.2098L691.357 64.9488C689.546 61.2758 685.472 59.3598 681.455 60.3118L661.086 65.0888C657.076 66.0298 654.307 69.5338 654.353 73.6088L654.644 99.5498C654.701 104.603 651.817 109.28 647.295 111.461C643.395 113.344 639.522 115.412 635.783 117.61C631.468 120.145 625.958 119.966 621.74 117.151L600.021 102.653C596.593 100.367 592.104 100.728 589.099 103.535L573.876 117.766C570.887 120.562 570.261 124.96 572.354 128.465L585.667 150.75C588.261 155.09 588.109 160.589 585.28 164.758C582.886 168.284 580.603 171.97 578.495 175.713C576.02 180.103 571.134 182.697 566.055 182.367L539.96 180.569C535.843 180.276 532.142 182.818 530.962 186.727L524.962 206.6C523.784 210.502 525.467 214.626 529.055 216.627L551.846 229.349C556.299 231.834 558.939 236.664 558.575 241.651C558.258 245.982 558.122 250.348 558.169 254.631C558.225 259.612 555.308 264.262 550.737 266.474L527.274 277.831C523.576 279.62 521.656 283.639 522.605 287.602L527.438 307.792C528.389 311.762 531.989 314.457 536.063 314.464L562.24 314.193C567.318 314.141 572.034 317.002 574.235 321.477C576.147 325.362 578.237 329.201 580.446 332.889C583.016 337.183 582.837 342.665 579.989 346.858L565.373 368.369C563.078 371.746 563.447 376.174 566.27 379.14L580.639 394.235C583.474 397.212 587.937 397.838 591.491 395.753L613.97 382.574C618.334 380.01 623.863 380.168 628.053 382.963C631.6 385.33 635.321 387.594 639.115 389.696C643.551 392.155 646.191 397.006 645.839 402.057L644.041 427.914C643.759 431.98 646.319 435.638 650.268 436.81L670.326 442.769C674.284 443.952 678.46 442.279 680.481 438.718L693.306 416.139C695.81 411.731 700.663 409.08 705.688 409.485C710.076 409.8 714.477 409.951 718.79 409.892C718.831 409.892 718.876 409.892 718.921 409.892ZM716.91 344.064C715.841 344.064 714.772 344.047 713.699 344.009C662.922 342.298 622.994 299.959 624.691 249.631C626.387 199.307 669.039 159.719 719.854 161.463C770.63 163.174 810.558 205.513 808.861 255.842C808.04 280.225 797.685 302.826 779.707 319.481C762.517 335.402 740.326 344.064 716.91 344.064ZM716.684 165.888C669.712 165.888 630.747 202.923 629.167 249.782C627.553 297.643 665.542 337.904 713.849 339.534C737.246 340.28 759.561 332.033 776.661 316.192C793.757 300.357 803.601 278.87 804.382 255.69C805.996 207.829 768.008 167.568 719.701 165.938C718.693 165.905 717.686 165.888 716.684 165.888Z" fill="black"/>
<path d="M866.311 710.827C865.504 710.827 864.686 710.733 863.87 710.538L849.027 706.988C844.325 705.864 841.094 701.725 841.169 696.924L841.462 678.018C841.496 675.824 840.238 673.785 838.259 672.823C835.323 671.397 832.431 669.844 829.658 668.203C827.759 667.085 825.342 667.149 823.493 668.369L807.638 678.853C803.621 681.506 798.377 681.058 794.879 677.762L783.817 667.33C780.306 664.02 779.592 658.827 782.083 654.702L791.883 638.456C793.018 636.577 792.975 634.212 791.773 632.432C789.954 629.737 788.225 626.931 786.634 624.091C785.578 622.21 783.464 621.077 781.237 621.228L762.181 622.455C757.349 622.785 753.042 619.771 751.673 615.173L747.358 600.655C745.989 596.046 747.986 591.197 752.216 588.86L768.861 579.664C770.794 578.594 771.954 576.523 771.815 574.386C771.605 571.168 771.53 567.872 771.592 564.593C771.634 562.443 770.371 560.424 768.378 559.448L751.278 551.079C746.937 548.953 744.702 544.208 745.84 539.538L749.43 524.825C750.555 520.216 754.643 517.031 759.402 517.031C759.456 517.031 759.509 517.031 759.564 517.031L778.642 517.313C778.672 517.313 778.7 517.313 778.728 517.313C780.924 517.313 782.952 516.073 783.913 514.133C785.357 511.215 786.926 508.345 788.578 505.606C789.701 503.74 789.638 501.365 788.415 499.549L777.841 483.839C775.15 479.84 775.607 474.619 778.948 471.141L789.478 460.175C792.806 456.706 798.022 455.999 802.167 458.454L818.557 468.16C820.47 469.293 822.878 469.247 824.69 468.046C827.427 466.233 830.259 464.52 833.106 462.952C835.003 461.906 836.136 459.817 835.992 457.632L834.761 438.748C834.449 433.955 837.471 429.661 842.11 428.305L856.76 424.024C861.387 422.674 866.267 424.647 868.619 428.832L877.893 445.325C878.97 447.243 881.06 448.405 883.246 448.254C886.512 448.046 889.838 447.968 893.126 448.029C895.317 448.064 897.359 446.817 898.345 444.84L906.797 427.89C908.936 423.594 913.708 421.378 918.405 422.5L933.249 426.05C937.95 427.174 941.181 431.313 941.107 436.114L940.814 455.022C940.78 457.214 942.038 459.253 944.017 460.215C946.959 461.646 949.853 463.199 952.618 464.835C954.514 465.953 956.936 465.889 958.782 464.669L974.639 454.185C978.656 451.532 983.901 451.98 987.398 455.277L998.459 465.709C1001.97 469.021 1002.68 474.212 1000.2 478.337L990.393 494.587C989.261 496.464 989.316 498.844 990.533 500.651C992.337 503.326 994.049 506.102 995.622 508.906C996.694 510.816 998.827 511.977 1001.04 511.811L1020.1 510.584C1024.93 510.269 1029.24 513.266 1030.61 517.868L1034.92 532.384C1036.29 536.993 1034.29 541.842 1030.06 544.179L1013.42 553.375C1011.48 554.445 1010.32 556.516 1010.46 558.651C1010.67 561.877 1010.75 565.172 1010.69 568.446C1010.64 570.596 1011.91 572.615 1013.9 573.591L1031 581.96C1035.34 584.086 1037.58 588.831 1036.44 593.501L1032.85 608.214C1031.72 612.823 1027.63 616.01 1022.87 616.01C1022.82 616.01 1022.77 616.01 1022.71 616.01L1003.64 615.726C1001.5 615.665 999.338 616.94 998.366 618.906C996.919 621.828 995.35 624.696 993.699 627.435C992.577 629.299 992.64 631.674 993.863 633.49L1004.44 649.2C1007.13 653.199 1006.67 658.42 1003.33 661.9L992.799 672.863C989.472 676.33 984.256 677.039 980.111 674.587L963.717 664.877C961.805 663.748 959.384 663.803 957.546 665.021C954.849 666.806 952.046 668.503 949.214 670.065C947.291 671.126 946.142 673.221 946.285 675.404L947.517 694.292C947.829 699.082 944.807 703.376 940.168 704.733L925.517 709.014C920.89 710.366 916.011 708.391 913.658 704.206L904.386 687.715C903.305 685.794 901.212 684.615 899.033 684.784C895.766 684.992 892.444 685.068 889.154 685.009C886.948 685.029 884.921 686.219 883.935 688.198L875.482 705.151C873.708 708.699 870.143 710.827 866.311 710.827ZM826.717 662.929C828.528 662.929 830.337 663.401 831.938 664.349C834.605 665.926 837.39 667.42 840.216 668.794C843.754 670.513 846.002 674.162 845.942 678.088L845.649 696.994C845.607 699.68 847.425 701.999 850.07 702.631L864.913 706.181C867.572 706.82 870.263 705.571 871.469 703.151L879.922 686.199C881.676 682.684 885.333 680.466 889.233 680.529C892.401 680.59 895.598 680.516 898.744 680.312C902.618 680.076 906.372 682.108 908.289 685.518L917.56 702.009C918.887 704.367 921.641 705.48 924.258 704.713L938.909 700.432C941.518 699.669 943.218 697.265 943.043 694.585L941.811 675.697C941.555 671.788 943.61 668.037 947.047 666.14C949.775 664.637 952.474 663.003 955.071 661.284C958.328 659.127 962.618 659.022 965.997 661.021L982.391 670.731C984.737 672.118 987.688 671.718 989.565 669.76L1000.1 658.794C1001.96 656.849 1002.22 653.931 1000.72 651.7L990.144 635.99C987.953 632.737 987.842 628.47 989.86 625.121C991.447 622.487 992.956 619.729 994.349 616.918C996.061 613.457 999.66 611.244 1003.55 611.244C1003.6 611.244 1003.65 611.244 1003.7 611.244L1022.78 611.528C1022.81 611.528 1022.84 611.528 1022.87 611.528C1025.56 611.528 1027.86 609.739 1028.49 607.149L1032.08 592.436C1032.72 589.829 1031.46 587.175 1029.03 585.983L1011.93 577.614C1008.38 575.873 1006.13 572.242 1006.2 568.361C1006.26 565.209 1006.19 562.039 1005.99 558.94C1005.74 555.081 1007.8 551.356 1011.25 549.453L1027.9 540.257C1030.27 538.947 1031.39 536.232 1030.63 533.66L1026.31 519.144C1025.54 516.558 1023.11 514.868 1020.39 515.053L1001.33 516.28C997.38 516.516 993.626 514.499 991.716 511.096C990.202 508.399 988.555 505.726 986.819 503.151C984.631 499.905 984.528 495.635 986.556 492.271L996.359 476.021C997.748 473.718 997.348 470.817 995.385 468.967L984.324 458.535C982.345 456.671 979.379 456.418 977.109 457.92L961.253 468.404C957.983 470.567 953.7 470.674 950.337 468.69C947.676 467.115 944.891 465.619 942.059 464.243C938.521 462.524 936.273 458.877 936.333 454.951L936.626 436.043C936.668 433.357 934.85 431.038 932.205 430.406L917.361 426.856C914.701 426.215 912.011 427.466 910.805 429.888L902.353 446.838C900.597 450.355 896.949 452.484 893.042 452.508C889.875 452.451 886.676 452.523 883.531 452.725C879.654 452.966 875.906 450.931 873.987 447.521L864.713 431.028C863.387 428.672 860.631 427.561 858.015 428.324L843.365 432.605C840.756 433.368 839.056 435.772 839.231 438.454L840.463 457.338C840.719 461.249 838.68 464.992 835.268 466.875C832.525 468.384 829.799 470.034 827.165 471.779C823.93 473.923 819.655 474.017 816.274 472.013L799.884 462.307C797.54 460.918 794.591 461.316 792.71 463.276L782.179 474.242C780.311 476.187 780.056 479.105 781.558 481.336L792.131 497.046C794.323 500.299 794.435 504.566 792.415 507.918C790.828 510.552 789.318 513.312 787.927 516.119C786.192 519.625 782.449 521.83 778.576 521.793L759.497 521.511C756.766 521.43 754.421 523.267 753.782 525.888L750.192 540.601C749.555 543.208 750.811 545.862 753.247 547.054L770.347 555.423C773.898 557.164 776.145 560.795 776.071 564.676C776.011 567.832 776.083 571 776.285 574.095C776.535 577.956 774.471 581.681 771.026 583.584L754.38 592.78C752.008 594.093 750.886 596.805 751.65 599.377L755.965 613.895C756.734 616.478 759.182 618.163 761.89 617.983L780.948 616.756C784.867 616.509 788.645 618.521 790.54 621.899C792.072 624.631 793.736 627.332 795.487 629.925C797.66 633.147 797.752 637.406 795.719 640.77L785.919 657.016C784.529 659.319 784.928 662.22 786.891 664.07L797.953 674.502C799.929 676.361 802.897 676.615 805.168 675.117L821.022 664.633C822.735 663.5 824.726 662.929 826.717 662.929ZM891.092 633.746C854.334 633.746 824.073 604.489 823.331 567.892C822.968 549.936 829.682 532.911 842.236 519.957C854.785 507.005 871.669 499.673 889.776 499.306C890.243 499.297 890.714 499.293 891.18 499.293C927.939 499.293 958.199 528.55 958.941 565.147C959.304 583.106 952.59 600.128 940.036 613.084C927.487 626.034 910.603 633.366 892.496 633.733C892.029 633.742 891.558 633.746 891.092 633.746ZM891.178 503.772C890.742 503.772 890.305 503.776 889.865 503.785C872.948 504.126 857.174 510.977 845.453 523.074C833.736 535.164 827.471 551.049 827.81 567.8C828.501 601.959 856.765 629.266 891.093 629.266C891.529 629.266 891.966 629.262 892.405 629.253C909.324 628.912 925.096 622.061 936.817 609.967C948.534 597.877 954.799 581.992 954.46 565.239C953.77 531.08 925.506 503.772 891.178 503.772Z" fill="black"/>
<path d="M69.023 1629.45C91.982 1634.92 115.731 1629.23 139.183 1626.52L716.589 1566.82C746.253 1563.73 768.56 1538.51 767.851 1508.87L735.119 139.878L704.305 132.258C678.967 126.218 652.777 124.526 626.866 127.254L49.259 188.841C21.25 191.8 0 215.289 0 243.289V1578.27C0 1598.63 14.045 1616.34 33.964 1621.09L69.023 1629.45Z" fill="black"/>
<path d="M721.004 1574.46L103.24 1639.3C73.7221 1642.4 48.0181 1619.25 48.0181 1589.57V254.889C48.0181 229.294 67.3461 207.832 92.8011 205.16L710.564 140.32C740.082 137.222 765.786 160.369 765.786 190.049V1524.73C765.787 1550.32 746.459 1571.79 721.004 1574.46Z" fill="white"/>
<path d="M98.0421 1641.81C85.1991 1641.81 72.69 1637.06 63.061 1628.39C52.078 1618.5 45.7791 1604.35 45.7791 1589.57V254.89C45.7791 228.068 65.893 205.732 92.567 202.934L710.331 138.095C725.033 136.548 739.758 141.337 750.742 151.228C761.726 161.119 768.026 175.27 768.026 190.05V1524.73C768.026 1551.55 747.911 1573.89 721.238 1576.68L103.474 1641.52C101.662 1641.71 99.8491 1641.81 98.0421 1641.81ZM715.768 142.288C714.115 142.288 712.457 142.375 710.799 142.548L93.035 207.388C68.648 209.947 50.259 230.369 50.259 254.89V1589.57C50.259 1603.08 56.0171 1616.02 66.0591 1625.06C76.1001 1634.1 89.564 1638.47 103.007 1637.07L720.771 1572.23C745.157 1569.67 763.547 1549.25 763.547 1524.73V190.05C763.547 176.536 757.787 163.6 747.745 154.557C738.943 146.63 727.507 142.288 715.768 142.288Z" fill="black"/>
<path d="M98.05 1641.81C85.193 1641.81 72.689 1637.06 63.061 1628.39C52.078 1618.5 45.7791 1604.35 45.7791 1589.57V254.89C45.7791 228.068 65.893 205.732 92.567 202.934L710.331 138.095C725.033 136.548 739.758 141.337 750.742 151.228C761.726 161.119 768.026 175.27 768.026 190.05V740.053C768.026 741.289 767.023 742.293 765.786 742.293C764.549 742.293 763.546 741.289 763.546 740.053V190.05C763.546 176.536 757.786 163.6 747.744 154.557C737.705 145.514 724.235 141.15 710.798 142.548L93.0341 207.388C68.6471 209.947 50.2581 230.369 50.2581 254.89V1589.57C50.2581 1603.08 56.016 1616.02 66.058 1625.06C76.099 1634.1 89.563 1638.47 103.006 1637.07L370.174 1606.42C371.397 1606.25 372.513 1607.16 372.655 1608.39C372.796 1609.62 371.913 1610.73 370.685 1610.87L103.495 1641.52C101.679 1641.71 99.86 1641.81 98.05 1641.81Z" fill="black"/>
<path d="M721.001 1576.7C719.869 1576.7 718.898 1575.84 718.776 1574.69C718.647 1573.46 719.539 1572.36 720.77 1572.23C745.156 1569.67 763.546 1549.25 763.546 1524.73V740.053C763.546 738.815 764.549 737.813 765.786 737.813C767.023 737.813 768.026 738.815 768.026 740.053V1524.73C768.026 1551.55 747.911 1573.89 721.238 1576.68C721.158 1576.69 721.08 1576.7 721.001 1576.7Z" fill="black"/>
<path d="M732.58 223.835V1496.94C732.58 1520.17 715.041 1539.63 691.947 1542.07L131.318 1600.91C104.551 1603.71 81.2109 1582.7 81.2109 1555.78V282.678C81.2109 259.451 98.7499 239.985 121.866 237.567L306.01 218.236V233.647C306.01 251.073 321.106 264.67 338.443 262.856L481.507 247.848C496.447 246.28 507.804 233.669 507.804 218.639V197.046L682.473 178.724C709.262 175.901 732.58 196.912 732.58 223.835Z" fill="white"/>
<path d="M126.621 1603.4C114.912 1603.4 103.505 1599.07 94.7219 1591.15C84.7119 1582.14 78.9719 1569.24 78.9719 1555.78V282.676C78.9719 258.234 97.3119 237.882 121.634 235.34L305.777 216.008C306.409 215.932 307.039 216.146 307.511 216.57C307.982 216.994 308.251 217.6 308.251 218.235V233.648C308.251 241.319 311.521 248.665 317.224 253.801C322.928 258.937 330.574 261.435 338.211 260.628L481.274 245.622C495.123 244.165 505.565 232.565 505.565 218.638V197.046C505.565 195.9 506.431 194.937 507.571 194.819L682.24 176.497C695.643 175.086 709.056 179.444 719.064 188.451C729.078 197.465 734.821 210.362 734.821 223.835V1496.94C734.821 1521.37 716.492 1541.73 692.184 1544.3L131.554 1603.14C129.908 1603.31 128.26 1603.4 126.621 1603.4ZM303.77 220.722L122.1 239.794C100.066 242.1 83.4499 260.533 83.4499 282.676V1555.78C83.4499 1567.98 88.6509 1579.65 97.7199 1587.82C106.791 1596 118.955 1599.96 131.085 1598.69L691.713 1539.84C713.733 1537.51 730.339 1519.07 730.339 1496.94V223.835C730.339 211.631 725.136 199.948 716.065 191.783C706.997 183.62 694.834 179.682 682.707 180.951L510.043 199.063V218.638C510.043 234.864 497.875 248.38 481.74 250.076L338.677 265.081C329.782 266.019 320.87 263.115 314.224 257.128C307.581 251.145 303.77 242.586 303.77 233.648V220.722Z" fill="black"/>
<path d="M670.189 1504.19L149.768 1560.17C132.373 1562.04 117.227 1548.06 117.227 1530.14V816.816C117.227 801.359 128.616 788.398 143.617 786.785L664.038 730.807C681.433 728.936 696.579 742.915 696.579 760.839V1474.16C696.579 1489.61 685.189 1502.58 670.189 1504.19Z" fill="white"/>
<path d="M146.714 1562.57C139.058 1562.57 131.575 1559.72 125.777 1554.51C118.919 1548.35 114.987 1539.47 114.987 1530.14V816.816C114.987 800.168 127.192 786.299 143.378 784.558L663.798 728.58C672.56 727.633 681.402 730.507 688.03 736.461C694.886 742.621 698.818 751.506 698.818 760.838V1474.16C698.818 1490.81 686.612 1504.68 670.427 1506.42L150.007 1562.39C148.91 1562.51 147.809 1562.57 146.714 1562.57ZM667.196 732.876C666.229 732.876 665.256 732.928 664.277 733.033L143.857 789.011C129.953 790.507 119.467 802.462 119.467 816.815V1530.13C119.467 1538.2 122.859 1545.87 128.771 1551.18C134.537 1556.36 141.906 1558.75 149.529 1557.94L669.949 1501.96C683.853 1500.47 694.339 1488.51 694.339 1474.16V760.837C694.339 752.774 690.948 745.105 685.037 739.794C680.011 735.28 673.764 732.876 667.196 732.876Z" fill="black"/>
<path d="M380.28 1534.49L155.894 1329.13L227.373 1247.11L451.759 1452.47L380.28 1534.49Z" fill="white"/>
<path d="M380.28 1536.73C379.722 1536.73 379.182 1536.53 378.767 1536.14L154.381 1330.78C153.484 1329.96 153.407 1328.57 154.205 1327.65L225.685 1245.63C226.082 1245.18 226.645 1244.9 227.248 1244.87C227.846 1244.84 228.441 1245.04 228.886 1245.45L453.272 1450.82C454.169 1451.64 454.247 1453.03 453.448 1453.94L381.968 1535.97C381.571 1536.42 381.008 1536.7 380.405 1536.73C380.364 1536.73 380.321 1536.73 380.28 1536.73ZM159.019 1328.95L380.1 1531.29L448.635 1452.65L227.555 1250.31L159.019 1328.95Z" fill="black"/>
<path d="M631.405 800.852L697.632 861.467V806.173L658.21 770.093L687.426 736.567C681.483 731.28 673.504 728.381 664.971 729.298L637.204 732.285L628.195 742.623L619.035 734.239L564.975 740.054L601.389 773.382L529.359 856.037L448.934 782.429L480.424 746.294L420.889 752.698L418.143 755.849L365.647 761.496L392.113 785.718L320.083 868.373L239.429 794.556L260.911 769.905L201.375 776.31L198.63 779.46L166.32 782.936L182.61 797.844L119.372 870.411V888.546L116.173 885.618V940.912L194.442 1012.55L119.372 1098.69V1160.6L224.458 1040.02L304.883 1113.63L116.173 1330.17V1392.08L334.898 1141.1L415.551 1214.91L122.903 1550.73C128.971 1558.3 138.492 1562.79 148.833 1561.68L169.227 1559.48L445.566 1242.39L526.22 1316.2L329.204 1542.28L388.74 1535.87L556.235 1343.67L636.887 1417.49L548.716 1518.67L608.252 1512.26L666.902 1444.96L697.631 1473.09V1417.79L693.708 1414.2L697.631 1409.7V1347.79L663.693 1386.73L583.039 1312.91L655.069 1230.26L697.631 1269.21V1213.92L681.875 1199.5L697.631 1181.42V1119.5L651.86 1172.03L571.207 1098.21L643.236 1015.56L697.631 1065.34V1010.05L670.042 984.796L697.631 953.139V891.225L640.027 957.326L559.373 883.509L631.405 800.852ZM422.131 813.188L502.555 886.796L430.525 969.451L350.1 895.843L422.131 813.188ZM140.596 907.969L212.626 825.314L293.279 899.132L221.249 981.786L140.596 907.969ZM251.264 1009.26L323.295 926.603L403.719 1000.21L331.69 1082.86L251.264 1009.26ZM361.704 1110.33L433.733 1027.68L514.388 1101.5L442.357 1184.15L361.704 1110.33ZM625.056 1202.78L553.025 1285.44L472.371 1211.62L544.402 1128.97L625.056 1202.78ZM613.224 988.085L541.193 1070.74L460.539 996.922L532.57 914.267L613.224 988.085Z" fill="white"/>
<path d="M145.739 1564.08C136.278 1564.08 127.274 1559.76 121.156 1552.13C120.478 1551.28 120.503 1550.07 121.215 1549.25L412.427 1215.09L335.079 1144.3L117.863 1393.56C117.248 1394.26 116.262 1394.51 115.389 1394.18C114.514 1393.85 113.934 1393.02 113.934 1392.08V1330.17C113.934 1329.63 114.13 1329.11 114.485 1328.7L301.759 1113.8L224.639 1043.22L121.061 1162.07C120.448 1162.78 119.461 1163.03 118.587 1162.7C117.712 1162.37 117.132 1161.54 117.132 1160.6V1098.69C117.132 1098.15 117.328 1097.63 117.683 1097.22L191.317 1012.72L114.66 942.563C114.196 942.139 113.933 941.539 113.933 940.912V885.618C113.933 884.73 114.458 883.925 115.27 883.568C115.876 883.299 116.554 883.316 117.133 883.594V870.41C117.133 869.87 117.329 869.347 117.684 868.938L179.486 798.022L164.808 784.587C164.158 783.994 163.918 783.073 164.192 782.238C164.466 781.4 165.206 780.803 166.081 780.709L197.519 777.327L199.688 774.838C200.059 774.414 200.576 774.142 201.137 774.083L260.673 767.678C261.58 767.575 262.472 768.052 262.899 768.87C263.325 769.686 263.207 770.681 262.601 771.377L242.555 794.378L319.903 865.17L388.988 785.896L364.135 763.147C363.485 762.554 363.245 761.633 363.519 760.798C363.793 759.96 364.533 759.363 365.408 759.269L417.031 753.717L419.201 751.226C419.572 750.802 420.089 750.53 420.65 750.471L480.185 744.068C481.1 743.965 481.984 744.442 482.411 745.26C482.838 746.076 482.719 747.071 482.114 747.767L452.061 782.251L529.181 852.835L598.266 773.558L563.464 741.705C562.814 741.112 562.574 740.191 562.848 739.356C563.123 738.518 563.862 737.921 564.737 737.827L618.797 732.013C619.436 731.943 620.073 732.153 620.549 732.588L628.016 739.421L635.517 730.813C635.888 730.389 636.405 730.117 636.966 730.058L664.733 727.072C673.585 726.123 682.173 728.896 688.916 734.892C689.834 735.708 689.923 737.11 689.116 738.038L661.336 769.915L699.146 804.522C699.61 804.946 699.873 805.546 699.873 806.173V861.467C699.873 862.355 699.348 863.16 698.535 863.517C697.724 863.878 696.775 863.72 696.12 863.119L631.586 804.054L562.501 883.33L639.849 954.122L695.944 889.751C696.559 889.049 697.546 888.8 698.418 889.126C699.293 889.454 699.873 890.29 699.873 891.224V953.139C699.873 953.679 699.677 954.202 699.322 954.611L673.169 984.618L699.146 1008.39C699.61 1008.82 699.873 1009.42 699.873 1010.05V1065.34C699.873 1066.23 699.348 1067.03 698.535 1067.39C697.724 1067.75 696.775 1067.59 696.12 1066.99L643.418 1018.76L574.333 1098.03L651.681 1168.82L695.943 1118.03C696.558 1117.33 697.545 1117.08 698.417 1117.41C699.292 1117.73 699.872 1118.57 699.872 1119.5V1181.42C699.872 1181.96 699.676 1182.48 699.321 1182.89L685.001 1199.32L699.145 1212.27C699.609 1212.69 699.872 1213.29 699.872 1213.92V1269.21C699.872 1270.1 699.347 1270.91 698.534 1271.26C697.723 1271.62 696.774 1271.47 696.119 1270.86L655.25 1233.46L586.165 1312.74L663.513 1383.53L695.943 1346.31C696.558 1345.61 697.545 1345.36 698.417 1345.69C699.292 1346.01 699.872 1346.85 699.872 1347.78V1409.7C699.872 1410.24 699.676 1410.76 699.321 1411.17L696.834 1414.02L699.145 1416.14C699.609 1416.56 699.872 1417.16 699.872 1417.79V1473.08C699.872 1473.97 699.347 1474.78 698.534 1475.13C697.723 1475.49 696.774 1475.34 696.119 1474.74L667.083 1448.16L609.941 1513.73C609.57 1514.16 609.053 1514.43 608.492 1514.49L548.956 1520.89C548.035 1520.99 547.156 1520.51 546.73 1519.7C546.303 1518.88 546.422 1517.89 547.027 1517.19L633.761 1417.67L556.414 1346.87L390.427 1537.34C390.056 1537.77 389.539 1538.04 388.978 1538.1L329.442 1544.5C328.517 1544.59 327.642 1544.13 327.216 1543.31C326.789 1542.5 326.908 1541.5 327.514 1540.8L523.093 1316.38L445.745 1245.59L170.914 1560.95C170.543 1561.38 170.026 1561.65 169.465 1561.71L149.07 1563.9C147.958 1564.02 146.845 1564.08 145.739 1564.08ZM125.863 1550.74C131.714 1557.13 140.075 1560.37 148.594 1559.45L168.116 1557.35L443.879 1240.91C444.276 1240.46 444.839 1240.18 445.442 1240.15C446.035 1240.12 446.635 1240.32 447.08 1240.73L527.734 1314.55C528.631 1315.37 528.708 1316.76 527.91 1317.67L334.65 1539.44L387.629 1533.74L554.548 1342.2C554.945 1341.75 555.508 1341.47 556.111 1341.44C556.707 1341.41 557.303 1341.61 557.749 1342.02L638.401 1415.84C639.298 1416.66 639.375 1418.05 638.577 1418.96L554.162 1515.83L607.141 1510.13L665.215 1443.49C665.612 1443.03 666.175 1442.76 666.778 1442.72C667.377 1442.69 667.97 1442.9 668.416 1443.31L695.392 1468V1418.78L692.196 1415.85C691.299 1415.03 691.221 1413.65 692.02 1412.73L695.392 1408.86V1353.77L665.383 1388.2C664.986 1388.66 664.423 1388.94 663.82 1388.97C663.205 1389 662.627 1388.79 662.182 1388.38L581.528 1314.57C580.631 1313.75 580.554 1312.36 581.352 1311.44L653.382 1228.79C653.779 1228.33 654.342 1228.06 654.945 1228.03C655.542 1227.99 656.137 1228.2 656.583 1228.61L695.392 1264.13V1214.91L680.363 1201.15C679.466 1200.33 679.389 1198.94 680.187 1198.03L695.392 1180.58V1125.49L653.55 1173.5C653.153 1173.95 652.59 1174.23 651.987 1174.26C651.385 1174.29 650.794 1174.09 650.349 1173.68L569.696 1099.86C568.799 1099.04 568.721 1097.65 569.52 1096.74L641.55 1014.08C641.947 1013.63 642.51 1013.35 643.113 1013.32C643.708 1013.28 644.305 1013.5 644.751 1013.9L695.393 1060.26V1011.03L668.531 986.448C667.634 985.628 667.557 984.241 668.355 983.324L695.393 952.3V897.206L641.718 958.799C641.321 959.254 640.758 959.53 640.155 959.563C639.551 959.587 638.962 959.386 638.517 958.979L557.863 885.162C556.966 884.342 556.889 882.955 557.687 882.038L629.717 799.382C630.114 798.927 630.677 798.651 631.28 798.619C631.873 798.571 632.473 798.794 632.918 799.203L695.393 856.384V807.163L656.699 771.746C655.802 770.926 655.725 769.539 656.523 768.622L684.226 736.832C678.733 732.667 672.057 730.79 665.213 731.527L638.319 734.419L629.887 744.096C629.49 744.551 628.927 744.827 628.324 744.859C627.718 744.877 627.13 744.684 626.686 744.275L618.272 736.575L570.15 741.75L602.905 771.729C603.802 772.549 603.88 773.936 603.081 774.853L531.051 857.509C530.654 857.964 530.091 858.24 529.488 858.272C528.896 858.303 528.295 858.097 527.85 857.688L447.425 784.079C446.528 783.259 446.451 781.872 447.249 780.955L474.983 749.132L422.005 754.828L419.835 757.319C419.464 757.743 418.947 758.015 418.386 758.074L370.822 763.19L393.629 784.065C394.526 784.885 394.604 786.272 393.805 787.189L321.775 869.843C321.378 870.298 320.815 870.574 320.212 870.606C319.609 870.621 319.019 870.431 318.574 870.022L237.92 796.205C237.023 795.385 236.945 793.998 237.744 793.081L255.47 772.742L202.491 778.44L200.322 780.929C199.951 781.353 199.434 781.625 198.873 781.684L171.494 784.63L184.125 796.191C185.022 797.011 185.099 798.398 184.301 799.315L121.614 871.248V888.542C121.614 889.43 121.089 890.235 120.277 890.592C119.671 890.861 118.993 890.843 118.415 890.566V939.923L195.957 1010.89C196.854 1011.71 196.931 1013.1 196.133 1014.02L121.614 1099.53V1154.62L222.771 1038.54C223.168 1038.09 223.731 1037.81 224.334 1037.78C224.945 1037.76 225.527 1037.96 225.972 1038.37L306.397 1111.97C307.294 1112.79 307.371 1114.18 306.573 1115.1L118.414 1331.01V1386.1L333.21 1139.62C333.607 1139.17 334.17 1138.89 334.773 1138.86C335.363 1138.83 335.966 1139.03 336.411 1139.44L417.065 1213.26C417.962 1214.08 418.039 1215.47 417.241 1216.38L125.863 1550.74ZM553.026 1287.68C552.467 1287.68 551.928 1287.47 551.513 1287.09L470.859 1213.27C469.962 1212.45 469.885 1211.07 470.683 1210.15L542.714 1127.49C543.111 1127.04 543.674 1126.76 544.277 1126.73C544.871 1126.7 545.469 1126.9 545.915 1127.32L626.569 1201.13C627.466 1201.95 627.543 1203.34 626.745 1204.26L554.714 1286.91C554.317 1287.37 553.754 1287.64 553.151 1287.68C553.11 1287.68 553.067 1287.68 553.026 1287.68ZM475.497 1211.45L552.845 1282.24L621.931 1202.96L544.583 1132.17L475.497 1211.45ZM442.357 1186.39C441.799 1186.39 441.259 1186.18 440.844 1185.8L360.191 1111.99C359.294 1111.17 359.217 1109.78 360.015 1108.86L432.044 1026.21C432.441 1025.75 433.004 1025.48 433.607 1025.45C434.198 1025.41 434.8 1025.62 435.245 1026.03L515.9 1099.85C516.797 1100.67 516.875 1102.05 516.076 1102.97L444.045 1185.62C443.648 1186.08 443.085 1186.36 442.482 1186.39C442.442 1186.39 442.4 1186.39 442.357 1186.39ZM364.829 1110.16L442.177 1180.95L511.263 1101.68L433.914 1030.88L364.829 1110.16ZM331.689 1085.1C331.131 1085.1 330.591 1084.9 330.176 1084.52L249.751 1010.91C248.854 1010.09 248.777 1008.7 249.575 1007.78L321.606 925.13C322.003 924.675 322.566 924.399 323.169 924.366C323.774 924.34 324.362 924.541 324.807 924.95L405.231 998.559C406.128 999.379 406.205 1000.77 405.407 1001.68L333.378 1084.34C332.981 1084.79 332.418 1085.07 331.815 1085.1C331.774 1085.1 331.731 1085.1 331.689 1085.1ZM254.389 1009.08L331.509 1079.66L400.594 1000.39L323.475 929.805L254.389 1009.08ZM541.193 1072.98C540.634 1072.98 540.095 1072.77 539.68 1072.39L459.026 998.573C458.129 997.753 458.052 996.366 458.85 995.449L530.881 912.795C531.278 912.34 531.841 912.064 532.444 912.032C533.036 911.99 533.637 912.207 534.082 912.616L614.735 986.433C615.632 987.253 615.709 988.64 614.911 989.557L542.88 1072.21C542.483 1072.67 541.92 1072.94 541.317 1072.97C541.277 1072.98 541.234 1072.98 541.193 1072.98ZM463.664 996.745L541.012 1067.54L610.098 988.263L532.75 917.472L463.664 996.745ZM221.25 984.025C220.692 984.025 220.152 983.817 219.737 983.437L139.083 909.62C138.186 908.8 138.109 907.413 138.907 906.496L210.937 823.842C211.334 823.387 211.897 823.111 212.5 823.079C213.092 823.046 213.693 823.254 214.138 823.663L294.791 897.48C295.688 898.3 295.765 899.687 294.967 900.604L222.938 983.258C222.541 983.713 221.978 983.989 221.375 984.021C221.334 984.023 221.292 984.025 221.25 984.025ZM143.721 907.791L221.069 978.583L290.154 899.309L212.806 828.517L143.721 907.791ZM430.525 971.692C429.966 971.692 429.427 971.484 429.012 971.104L348.587 897.495C347.69 896.675 347.613 895.288 348.411 894.371L420.442 811.715C420.839 811.26 421.402 810.984 422.005 810.952C422.601 810.91 423.197 811.127 423.643 811.536L504.067 885.145C504.964 885.965 505.041 887.352 504.243 888.269L432.213 970.925C431.816 971.38 431.253 971.656 430.65 971.688C430.609 971.69 430.566 971.692 430.525 971.692ZM353.225 895.666L430.345 966.25L499.43 886.974L422.311 816.39L353.225 895.666Z" fill="black"/>
<path d="M210.35 639.707C221.269 639.707 230.12 630.855 230.12 619.937C230.12 609.018 221.269 600.167 210.35 600.167C199.431 600.167 190.58 609.018 190.58 619.937C190.58 630.855 199.431 639.707 210.35 639.707Z" fill="black"/>
<path d="M210.35 330.311C164.937 330.311 128.125 367.018 128.125 412.299C128.125 423.619 133.263 439.448 140.973 456.828C160.402 500.634 196.158 554.278 207.089 570.306C208.657 572.602 212.04 572.608 213.606 570.312C228.87 547.934 292.574 452.154 292.574 412.299C292.574 367.018 255.76 330.311 210.35 330.311Z" fill="black"/>
<path d="M210.35 458.315C234.939 458.315 254.872 438.439 254.872 413.922C254.872 389.404 234.939 369.529 210.35 369.529C185.761 369.529 165.828 389.404 165.828 413.922C165.828 438.439 185.761 458.315 210.35 458.315Z" fill="white"/>
<path d="M532.04 289.372C618.166 277.268 687.599 342.872 687.426 435.827C687.254 528.497 617.541 613.657 531.415 625.761C445.289 637.865 375.6 572.297 375.772 479.627C375.945 386.673 445.914 301.477 532.04 289.372Z" fill="white"/>
<path d="M511.104 629.439C478.39 629.439 447.832 618.246 423.446 597.008C391.638 569.304 373.445 526.518 373.532 479.622C373.706 385.731 444.671 299.39 531.727 287.153C572.007 281.496 610.354 292.451 639.7 318.009C671.541 345.741 689.752 388.685 689.665 435.83C689.491 529.565 618.64 615.763 531.726 627.98C524.784 628.956 517.897 629.439 511.104 629.439ZM532.351 291.59C447.418 303.527 378.182 387.882 378.012 479.632C377.927 525.229 395.559 566.781 426.388 593.629C454.842 618.413 492.032 629.035 531.103 623.544C615.895 611.627 685.016 527.416 685.186 435.822C685.271 389.976 667.62 348.266 636.759 321.387C608.407 296.698 571.328 286.111 532.351 291.59Z" fill="black"/>
<path d="M494.585 536.465L494.536 562.822C494.531 565.359 492.625 567.698 490.275 568.029L477.824 569.779C475.473 570.109 473.557 568.307 473.562 565.77L473.611 539.413L494.585 536.465Z" fill="black"/>
<path d="M589.268 523.159L589.219 549.516C589.214 552.053 587.291 554.395 584.941 554.725L572.489 556.475C570.138 556.805 568.24 555.001 568.244 552.464L568.293 526.107L589.268 523.159Z" fill="black"/>
<path d="M591.984 345.41C597.636 344.616 602.202 348.93 602.19 355.031L601.893 515.053C601.886 518.539 599.244 521.756 595.996 522.213L589.267 523.159L568.292 526.107L494.584 536.466L473.609 539.414L466.88 540.36C463.633 540.816 461 538.34 461.006 534.855L461.295 379.287C461.311 370.727 467.765 362.869 475.696 361.755L591.984 345.41Z" fill="white"/>
<path d="M466.104 542.654C464.354 542.654 462.71 542.048 461.39 540.9C459.719 539.443 458.763 537.238 458.767 534.85L459.056 379.283C459.075 369.656 466.4 360.799 475.385 359.537L591.672 343.193C594.924 342.734 598.034 343.633 600.427 345.717C602.979 347.937 604.438 351.337 604.431 355.038L604.133 515.059C604.124 519.701 600.687 523.82 596.306 524.432L467.191 542.579C466.826 542.629 466.463 542.654 466.104 542.654ZM592.295 347.628L476.008 363.972C469.145 364.937 463.55 371.807 463.535 379.291L463.246 534.858C463.244 535.965 463.629 536.91 464.331 537.52C464.936 538.045 465.712 538.262 466.566 538.141L595.683 519.994C597.83 519.692 599.648 517.428 599.652 515.048L599.95 355.027C599.954 352.59 599.078 350.481 597.484 349.092C596.085 347.875 594.241 347.356 592.295 347.628Z" fill="black"/>
<path d="M575.038 487.521C580.923 486.694 585.668 491.177 585.656 497.529C585.644 503.862 580.88 509.681 574.995 510.508C569.11 511.335 564.347 506.854 564.359 500.522C564.371 494.17 569.152 488.348 575.038 487.521Z" fill="white"/>
<path d="M573.595 512.846C570.861 512.846 568.299 511.905 566.247 510.118C563.616 507.828 562.111 504.328 562.118 500.517C562.132 493.104 567.788 486.279 574.724 485.301C578.085 484.826 581.294 485.752 583.763 487.902C586.396 490.194 587.902 493.705 587.895 497.533C587.881 504.937 582.233 511.751 575.305 512.725C574.73 512.806 574.159 512.846 573.595 512.846ZM575.35 489.738C570.534 490.416 566.608 495.257 566.598 500.526C566.594 503.074 567.513 505.281 569.188 506.738C570.669 508.029 572.621 508.58 574.682 508.289C579.489 507.613 583.406 502.785 583.416 497.525C583.42 494.959 582.499 492.741 580.822 491.282C579.349 489.998 577.401 489.449 575.35 489.738Z" fill="black"/>
<path d="M487.98 499.756C493.865 498.929 498.629 503.409 498.617 509.761C498.605 516.094 493.823 521.916 487.937 522.743C482.051 523.57 477.307 519.087 477.318 512.754C477.33 506.402 482.094 500.583 487.98 499.756Z" fill="white"/>
<path d="M486.541 525.082C483.811 525.082 481.254 524.141 479.205 522.359C476.576 520.069 475.071 516.567 475.077 512.75C475.091 505.337 480.739 498.512 487.667 497.539C491.042 497.062 494.251 497.992 496.725 500.149C499.358 502.441 500.864 505.948 500.856 509.767C500.842 517.171 495.186 523.987 488.248 524.963C487.674 525.043 487.105 525.082 486.541 525.082ZM489.357 501.9C489.006 501.9 488.65 501.924 488.292 501.974C483.486 502.65 479.569 507.486 479.559 512.758C479.555 515.313 480.474 517.522 482.149 518.981C483.624 520.265 485.566 520.814 487.626 520.525C492.442 519.849 496.368 515.017 496.378 509.756C496.382 507.199 495.461 504.985 493.785 503.524C492.561 502.46 491.018 501.9 489.357 501.9Z" fill="black"/>
<path d="M575.33 397.625C581.107 396.813 585.799 401.207 585.787 407.462L585.692 458.492C585.68 464.747 580.97 470.462 575.193 471.274L487.902 483.542C482.106 484.357 477.415 479.963 477.426 473.707L477.521 422.677C477.533 416.422 482.243 410.707 488.039 409.892L575.33 397.625Z" fill="white"/>
<path d="M486.524 485.881C483.818 485.881 481.285 484.949 479.258 483.184C476.664 480.924 475.18 477.468 475.187 473.704L475.281 422.674C475.295 415.368 480.879 408.64 487.726 407.675L575.017 395.408C578.33 394.942 581.51 395.854 583.953 397.983C586.548 400.243 588.034 403.699 588.027 407.468L587.932 458.498C587.918 465.806 582.343 472.532 575.504 473.493L488.214 485.762C487.646 485.842 487.081 485.881 486.524 485.881ZM575.641 399.843L488.351 412.11C483.625 412.775 479.771 417.517 479.761 422.682L479.667 473.712C479.663 476.214 480.562 478.378 482.2 479.806C483.65 481.07 485.561 481.611 487.591 481.324L574.881 469.055C579.597 468.392 583.443 463.652 583.452 458.488L583.547 407.458C583.551 404.953 582.65 402.788 581.011 401.359C579.563 400.099 577.658 399.555 575.641 399.843Z" fill="black"/>
<path d="M563.408 365.167C568.252 364.486 572.155 368.178 572.146 373.387C572.136 378.616 568.217 383.407 563.373 384.087L500.035 392.989C495.19 393.67 491.287 389.979 491.296 384.75C491.306 379.54 495.225 374.749 500.07 374.069L563.408 365.167Z" fill="white"/>
<path d="M498.886 395.311C496.544 395.311 494.35 394.504 492.593 392.973C490.34 391.011 489.05 388.012 489.057 384.746C489.069 378.357 493.77 372.691 499.759 371.851L563.097 362.948C565.982 362.535 568.733 363.337 570.855 365.184C573.106 367.146 574.393 370.136 574.387 373.391C574.375 379.791 569.674 385.465 563.686 386.305L500.348 395.208C499.856 395.278 499.368 395.311 498.886 395.311ZM563.72 367.384L500.382 376.287C496.679 376.808 493.544 380.684 493.536 384.755C493.533 386.75 494.243 388.469 495.535 389.596C496.659 390.576 498.144 390.992 499.723 390.773L563.061 381.87C566.828 381.341 569.898 377.534 569.905 373.383C569.908 371.399 569.201 369.686 567.91 368.564C566.784 367.581 565.294 367.155 563.72 367.384Z" fill="black"/>
<path d="M124.039 735.074C123.489 735.074 122.954 734.871 122.542 734.499C122.069 734.075 121.799 733.469 121.799 732.834V688.036C121.799 686.89 122.663 685.929 123.802 685.809L334.354 663.41C334.992 663.34 335.616 663.546 336.089 663.972C336.561 664.396 336.832 665.002 336.832 665.637V710.435C336.832 711.581 335.968 712.541 334.829 712.662L124.277 735.061C124.196 735.07 124.117 735.074 124.039 735.074ZM126.278 690.051V730.343L332.351 708.421V668.129L126.278 690.051Z" fill="black"/>
<path d="M1262.89 908.76L1524.28 954.457L1783.17 909.101C1783.61 909.023 1783.61 908.381 1783.17 908.303L1521.31 862.453L1262.89 908.76Z" fill="white"/>
<path d="M1524.28 956.697C1524.15 956.697 1524.02 956.686 1523.89 956.664L1262.5 910.967C1261.43 910.779 1260.65 909.851 1260.65 908.764C1260.65 907.677 1261.42 906.747 1262.49 906.555L1520.92 860.247C1521.18 860.199 1521.44 860.201 1521.7 860.245L1783.55 906.096C1784.82 906.321 1785.74 907.417 1785.74 908.703C1785.74 909.987 1784.82 911.083 1783.56 911.306L1524.66 956.664C1524.54 956.686 1524.41 956.697 1524.28 956.697ZM1275.74 908.734L1524.28 952.183L1772.46 908.704L1521.32 864.728L1275.74 908.734Z" fill="black"/>
<path d="M1524.23 1341.74V954.077L1261.81 908.598V1295.2L1524.23 1341.74Z" fill="white"/>
<path d="M1524.23 1343.98C1524.1 1343.98 1523.97 1343.97 1523.84 1343.94L1261.42 1297.4C1260.35 1297.21 1259.57 1296.28 1259.57 1295.2V908.598C1259.57 907.937 1259.86 907.31 1260.37 906.885C1260.87 906.456 1261.53 906.275 1262.19 906.391L1524.61 951.87C1525.68 952.056 1526.47 952.988 1526.47 954.077V1341.74C1526.47 1342.4 1526.17 1343.03 1525.67 1343.46C1525.26 1343.8 1524.75 1343.98 1524.23 1343.98ZM1264.05 1293.32L1521.99 1339.07V955.962L1264.05 911.26V1293.32Z" fill="black"/>
<path d="M1524.23 1341.74V954.077L1784.37 908.541V1295.42L1524.23 1341.74Z" fill="white"/>
<path d="M1524.23 1343.98C1523.71 1343.98 1523.2 1343.8 1522.79 1343.46C1522.28 1343.03 1521.99 1342.4 1521.99 1341.74V954.077C1521.99 952.99 1522.77 952.058 1523.84 951.87L1783.98 906.334C1784.63 906.22 1785.3 906.402 1785.81 906.826C1786.31 907.253 1786.61 907.88 1786.61 908.541V1295.42C1786.61 1296.51 1785.83 1297.44 1784.76 1297.63L1524.62 1343.95C1524.49 1343.97 1524.36 1343.98 1524.23 1343.98ZM1526.47 955.958V1339.07L1782.13 1293.55V911.208L1526.47 955.958Z" fill="black"/>
<path d="M1246.53 606.852L1443.54 641.294L1638.35 607.164C1638.75 607.095 1638.75 606.522 1638.35 606.453L1441.3 571.951L1246.53 606.852Z" fill="white"/>
<path d="M1443.54 643.533C1443.41 643.533 1443.28 643.522 1443.15 643.5L1246.14 609.059C1245.07 608.871 1244.29 607.943 1244.29 606.856C1244.29 605.769 1245.07 604.839 1246.14 604.647L1440.91 569.744C1441.17 569.696 1441.43 569.698 1441.69 569.742L1638.74 604.244C1639.99 604.465 1640.89 605.546 1640.89 606.814C1640.88 608.08 1639.98 609.157 1638.73 609.369L1443.93 643.499C1443.8 643.522 1443.67 643.533 1443.54 643.533ZM1259.38 606.826L1443.54 639.018L1627.4 606.808L1441.31 574.224L1259.38 606.826ZM1637.96 604.956C1637.96 604.958 1637.95 604.958 1637.95 604.958L1637.96 604.956Z" fill="black"/>
<path d="M1443.5 933.189V641.007L1245.72 606.73V898.11L1443.5 933.189Z" fill="white"/>
<path d="M1366.52 666.12V628.432L1316.53 619.769V657.254L1366.52 666.12Z" fill="black"/>
<path d="M1443.5 935.429C1443.37 935.429 1443.24 935.418 1443.11 935.394L1245.33 900.314C1244.26 900.126 1243.48 899.196 1243.48 898.109V606.729C1243.48 606.068 1243.77 605.441 1244.28 605.016C1244.78 604.587 1245.44 604.408 1246.1 604.522L1443.89 638.799C1444.96 638.985 1445.74 639.917 1445.74 641.006V933.188C1445.74 933.851 1445.45 934.479 1444.94 934.905C1444.53 935.245 1444.02 935.429 1443.5 935.429ZM1247.96 896.233L1441.26 930.517V642.892L1247.96 609.392V896.233Z" fill="black"/>
<path d="M1443.5 933.189V641.007L1639.57 606.686V898.281L1443.5 933.189Z" fill="white"/>
<path d="M1443.5 935.429C1442.98 935.429 1442.47 935.247 1442.06 934.906C1441.55 934.48 1441.26 933.852 1441.26 933.189V641.007C1441.26 639.92 1442.04 638.988 1443.12 638.8L1639.18 604.479C1639.83 604.363 1640.5 604.547 1641.01 604.971C1641.52 605.398 1641.81 606.025 1641.81 606.686V898.28C1641.81 899.365 1641.03 900.295 1639.96 900.485L1443.9 935.394C1443.76 935.418 1443.63 935.429 1443.5 935.429ZM1445.74 642.888V930.516L1637.33 896.403V609.352L1445.74 642.888Z" fill="black"/>
<path d="M841.372 880.151L1163.48 936.463L1483 880.484C1483.45 880.405 1483.45 879.755 1483 879.677L1159.82 823.089L841.372 880.151Z" fill="white"/>
<path d="M1163.48 938.704C1163.35 938.704 1163.22 938.693 1163.09 938.671L840.986 882.358C839.916 882.17 839.134 881.242 839.132 880.155C839.13 879.068 839.907 878.138 840.977 877.946L1159.43 820.883C1159.69 820.835 1159.95 820.837 1160.21 820.881L1483.39 877.47C1484.66 877.693 1485.58 878.791 1485.58 880.082C1485.58 881.37 1484.66 882.468 1483.39 882.692L1163.86 938.672C1163.74 938.693 1163.61 938.704 1163.48 938.704ZM854.223 880.125L1163.48 934.189L1472.32 880.081L1159.83 825.363L854.223 880.125Z" fill="black"/>
<path d="M1163.42 1413.7V935.994L840.047 879.952V1356.35L1163.42 1413.7Z" fill="white"/>
<path d="M1036.94 966.772V913.68L966.521 901.476V954.283L1036.94 966.772Z" fill="black"/>
<path d="M1163.41 1415.94C1163.28 1415.94 1163.15 1415.93 1163.02 1415.91L839.656 1358.55C838.586 1358.37 837.808 1357.44 837.808 1356.35V879.952C837.808 879.291 838.1 878.664 838.605 878.239C839.11 877.812 839.77 877.631 840.43 877.745L1163.8 933.787C1164.87 933.973 1165.65 934.905 1165.65 935.994V1413.7C1165.65 1414.37 1165.36 1414.99 1164.85 1415.42C1164.45 1415.76 1163.94 1415.94 1163.41 1415.94ZM842.287 1354.47L1161.18 1411.03V937.879L842.287 882.614V1354.47Z" fill="black"/>
<path d="M1163.42 1413.7V935.994L1483.98 879.881V1356.63L1163.42 1413.7Z" fill="white"/>
<path d="M1163.41 1415.94C1162.89 1415.94 1162.38 1415.76 1161.98 1415.42C1161.47 1414.99 1161.17 1414.36 1161.17 1413.7V935.993C1161.17 934.906 1161.96 933.974 1163.03 933.786L1483.59 877.674C1484.24 877.558 1484.91 877.742 1485.42 878.166C1485.93 878.593 1486.22 879.22 1486.22 879.881V1356.63C1486.22 1357.71 1485.44 1358.64 1484.37 1358.83L1163.81 1415.91C1163.68 1415.93 1163.55 1415.94 1163.41 1415.94ZM1165.66 937.875V1411.03L1481.74 1354.75V882.548L1165.66 937.875Z" fill="black"/>
<path d="M1082.74 1231.6C1082.64 1231.6 1082.53 1231.59 1082.42 1231.57L917.419 1207.58C916.319 1207.42 915.502 1206.48 915.502 1205.37V1026.82C915.502 1026.17 915.783 1025.55 916.273 1025.13C916.763 1024.7 917.413 1024.51 918.056 1024.6L1083.06 1047.92C1084.16 1048.08 1084.98 1049.02 1084.98 1050.14V1229.36C1084.98 1230.01 1084.7 1230.63 1084.21 1231.05C1083.8 1231.41 1083.28 1231.6 1082.74 1231.6ZM919.982 1203.43L1080.51 1226.77V1052.08L919.982 1029.4V1203.43Z" fill="black"/>
<path d="M939.926 1186.25C938.689 1186.25 937.686 1185.24 937.686 1184.01V1052.22C937.686 1050.99 938.689 1049.98 939.926 1049.98C941.163 1049.98 942.166 1050.99 942.166 1052.22V1184.01C942.166 1185.25 941.163 1186.25 939.926 1186.25Z" fill="black"/>
<path d="M960.14 1189.9C958.903 1189.9 957.9 1188.9 957.9 1187.66V1055.87C957.9 1054.63 958.903 1053.63 960.14 1053.63C961.377 1053.63 962.38 1054.63 962.38 1055.87V1187.66C962.38 1188.9 961.377 1189.9 960.14 1189.9Z" fill="black"/>
<path d="M980.354 1193.55C979.117 1193.55 978.114 1192.55 978.114 1191.31V1059.52C978.114 1058.28 979.117 1057.28 980.354 1057.28C981.591 1057.28 982.594 1058.28 982.594 1059.52V1191.31C982.594 1192.55 981.591 1193.55 980.354 1193.55Z" fill="black"/>
<path d="M1000.57 1197.2C999.331 1197.2 998.328 1196.2 998.328 1194.96V1063.17C998.328 1061.94 999.331 1060.93 1000.57 1060.93C1001.81 1060.93 1002.81 1061.94 1002.81 1063.17V1194.96C1002.81 1196.2 1001.81 1197.2 1000.57 1197.2Z" fill="black"/>
<path d="M1028.9 1195.63C1027.66 1195.63 1026.66 1194.63 1026.66 1193.39V1069.14C1026.66 1067.91 1027.66 1066.9 1028.9 1066.9C1030.13 1066.9 1031.14 1067.91 1031.14 1069.14V1193.39C1031.14 1194.63 1030.13 1195.63 1028.9 1195.63Z" fill="black"/>
<path d="M1061.21 1208.15C1059.97 1208.15 1058.97 1207.15 1058.97 1205.91V1074.12C1058.97 1072.89 1059.97 1071.88 1061.21 1071.88C1062.45 1071.88 1063.45 1072.89 1063.45 1074.12V1205.91C1063.45 1207.15 1062.45 1208.15 1061.21 1208.15Z" fill="black"/>
<path d="M1025.54 390.103C1025.54 454.074 1127.49 607.81 1151.92 643.724C1154.43 647.411 1159.84 647.402 1162.35 643.715C1179.84 617.991 1237.07 531.89 1268.16 461.578C1280.5 433.682 1288.72 408.272 1288.72 390.103C1288.72 317.426 1229.81 258.51 1157.13 258.51C1084.45 258.511 1025.54 317.427 1025.54 390.103Z" fill="black"/>
<path d="M1157.13 450.274C1190.36 450.274 1217.3 423.334 1217.3 390.103C1217.3 356.871 1190.36 329.932 1157.13 329.932C1123.9 329.932 1096.96 356.871 1096.96 390.103C1096.96 423.334 1123.9 450.274 1157.13 450.274Z" fill="white"/>
<path d="M478.534 1699.07L485.123 1769.02C485.346 1770.99 484.026 1772.8 482.283 1772.91L447.55 1775.05C446.052 1775.15 444.762 1773.94 444.552 1772.25L438.097 1708.68L478.534 1699.07Z" fill="white"/>
<path d="M447.378 1777.3C444.818 1777.3 442.675 1775.3 442.331 1772.53L435.869 1708.91C435.756 1707.79 436.488 1706.76 437.581 1706.5L478.018 1696.89C478.647 1696.74 479.313 1696.87 479.84 1697.25C480.367 1697.63 480.704 1698.22 480.765 1698.86L487.355 1768.82C487.535 1770.41 487.05 1772.05 486.017 1773.28C485.083 1774.4 483.806 1775.06 482.422 1775.14L447.689 1777.29C447.584 1777.29 447.48 1777.3 447.378 1777.3ZM440.524 1710.41L446.781 1772.03C446.843 1772.52 447.146 1772.78 447.41 1772.82L482.145 1770.67C482.342 1770.66 482.505 1770.5 482.585 1770.4C482.828 1770.11 482.945 1769.69 482.898 1769.28L476.546 1701.85L440.524 1710.41Z" fill="black"/>
<path d="M490.6 1750.91C492.906 1759.18 497.769 1782.46 499.803 1796.47C501.08 1805.26 495.525 1813.57 487.025 1815.87C462.993 1822.37 405.541 1822.09 357.712 1824.21C354.438 1824.35 348.399 1822.75 345.715 1814.82C336.614 1787.9 386.884 1779.56 436.574 1752.2C437.55 1751.66 438.739 1751.71 439.647 1752.36C440.218 1752.76 440.946 1753.26 441.803 1753.81C450.447 1759.31 464.814 1759.31 473.592 1754.04L483.506 1748.07C486.227 1746.44 489.742 1747.84 490.6 1750.91Z" fill="white"/>
<path d="M357.299 1826.45C352.567 1826.45 346.332 1823.63 343.595 1815.53C336.594 1794.82 359.829 1784.76 391.987 1770.84C405.361 1765.04 420.519 1758.48 435.496 1750.23C437.248 1749.27 439.338 1749.38 440.95 1750.53C441.498 1750.92 442.191 1751.4 443.007 1751.92C450.849 1756.9 464.326 1756.99 472.441 1752.11L482.353 1746.15C484.254 1745.01 486.519 1744.83 488.574 1745.64C490.633 1746.46 492.158 1748.16 492.757 1750.31C495.151 1758.89 499.992 1782.18 502.02 1796.14C503.453 1806.01 497.258 1815.42 487.61 1818.03C469.482 1822.94 433.654 1824.01 395.722 1825.14C383.102 1825.51 370.053 1825.9 357.811 1826.44C357.643 1826.45 357.472 1826.45 357.299 1826.45ZM437.997 1754.07C437.883 1754.07 437.767 1754.09 437.658 1754.16C422.494 1762.51 407.232 1769.12 393.767 1774.95C363.805 1787.92 342.158 1797.3 347.838 1814.1C350.471 1821.88 356.451 1821.99 357.615 1821.97C369.888 1821.43 382.954 1821.04 395.59 1820.66C433.251 1819.54 468.823 1818.48 486.441 1813.71C493.903 1811.69 498.695 1804.42 497.587 1796.79C495.635 1783.35 490.781 1759.89 488.442 1751.52C488.222 1750.73 487.667 1750.11 486.917 1749.81C486.174 1749.51 485.352 1749.58 484.662 1749.99L474.75 1755.95C465.184 1761.71 449.866 1761.59 440.604 1755.7C439.706 1755.13 438.943 1754.6 438.344 1754.17C438.244 1754.1 438.123 1754.07 437.997 1754.07Z" fill="black"/>
<path d="M501.252 1802.81C501.3 1803.06 501.331 1803.23 501.343 1803.3C502.619 1812.09 494.273 1817.49 486.294 1821.24C462.616 1832.35 366.993 1825.98 363.301 1825.73C363.226 1825.73 363.172 1825.72 363.097 1825.73C361.907 1825.74 349.769 1825.74 346.27 1818.2C345.835 1817.26 345.568 1815.94 345.404 1814.71C345.137 1812.69 345.275 1810.64 345.72 1808.65C346.083 1807.03 347.678 1806.02 349.273 1806.43C367.023 1810.96 408.464 1812.47 449.878 1807.91C477.409 1804.88 489.37 1798.87 495.751 1795.06C497.491 1794.02 499.716 1795.03 500.112 1797.03C500.443 1798.7 500.845 1800.74 501.252 1802.81Z" fill="white"/>
<path d="M423.247 1830C393.634 1830 365.32 1828.11 363.149 1827.97C361.604 1827.94 348.313 1827.93 344.238 1819.14C343.761 1818.11 343.417 1816.76 343.184 1815C342.892 1812.8 343.01 1810.5 343.535 1808.16C343.846 1806.77 344.681 1805.59 345.888 1804.85C347.076 1804.12 348.474 1803.91 349.828 1804.26C366.281 1808.46 406.849 1810.39 449.634 1805.68C475.991 1802.78 487.922 1797.13 494.603 1793.13C496.036 1792.28 497.803 1792.17 499.328 1792.85C500.867 1793.53 501.981 1794.93 502.311 1796.59L503.452 1802.38C503.511 1802.68 503.548 1802.89 503.561 1802.98C505.099 1813.57 494.987 1819.63 487.246 1823.27C475.964 1828.56 449.11 1830 423.247 1830ZM363.077 1823.49C363.151 1823.49 363.38 1823.49 363.431 1823.5C397.508 1825.82 466.813 1827.91 485.342 1819.21C495.732 1814.33 499.983 1809.52 499.126 1803.62L499.055 1803.25C499.055 1803.25 499.055 1803.25 499.054 1803.24L497.915 1797.46C497.85 1797.14 497.632 1797 497.508 1796.94C497.365 1796.88 497.146 1796.83 496.902 1796.98C489.861 1801.19 477.351 1807.14 450.123 1810.14C406.815 1814.9 365.553 1812.9 348.717 1808.6C348.504 1808.55 348.335 1808.61 348.23 1808.67C348.135 1808.73 347.965 1808.87 347.905 1809.14C347.496 1810.96 347.401 1812.74 347.623 1814.41C347.846 1816.09 348.144 1816.91 348.301 1817.25C351.236 1823.59 362.554 1823.46 363.063 1823.49C363.067 1823.49 363.071 1823.49 363.077 1823.49Z" fill="black"/>
<path d="M433.167 1776.19C432.694 1776.19 432.218 1776.04 431.812 1775.73L417.306 1764.68C416.322 1763.93 416.131 1762.53 416.882 1761.54C417.631 1760.56 419.034 1760.37 420.021 1761.12L434.527 1772.16C435.511 1772.91 435.702 1774.32 434.951 1775.3C434.51 1775.88 433.843 1776.19 433.167 1776.19Z" fill="black"/>
<path d="M413.894 1784.09C413.427 1784.09 412.954 1783.94 412.552 1783.64L399.862 1774.11C398.872 1773.37 398.672 1771.97 399.415 1770.98C400.157 1769.99 401.562 1769.79 402.551 1770.53L415.241 1780.06C416.231 1780.8 416.431 1782.2 415.688 1783.19C415.248 1783.78 414.575 1784.09 413.894 1784.09Z" fill="black"/>
<path d="M566.383 1139.31C566.383 1139.31 590.093 1186.76 598.069 1236.74C605.494 1283.28 632.799 1474.9 699.337 1628.59C706.88 1646.02 698.171 1664.15 679.619 1668.19C672.197 1669.8 669.087 1667.16 662.66 1664.04C659.349 1662.43 653.858 1657.67 653.858 1657.67C653.858 1657.67 536.065 1559.22 488.036 1300.92C457.144 1134.78 462.283 1147.96 462.283 1147.96L566.383 1139.31Z" fill="white"/>
<path d="M533.314 1161.02C533.314 1161.02 547.143 1251.19 520.989 1317.9C495.841 1382.04 479.781 1633.51 489.154 1706.16C489.744 1710.73 486.573 1714.91 482.01 1715.55C470.571 1717.15 449.943 1719.34 435.834 1716.7C433.238 1716.21 431.154 1714.31 430.507 1711.75C421.192 1674.89 343.94 1341.69 398.409 1170.95L533.314 1161.02Z" fill="white"/>
<path d="M506.874 1395.44C506.829 1395.44 506.784 1395.44 506.738 1395.44C505.503 1395.36 504.561 1394.3 504.636 1393.07C504.655 1392.74 506.752 1360.08 522.269 1323.79C525.268 1316.78 527.744 1308.79 529.63 1300.04C529.89 1298.83 531.078 1298.06 532.292 1298.32C533.5 1298.58 534.269 1299.78 534.009 1300.99C532.063 1310.01 529.5 1318.27 526.388 1325.55C511.174 1361.14 509.127 1393.01 509.107 1393.33C509.038 1394.52 508.05 1395.44 506.874 1395.44Z" fill="black"/>
<path d="M468.552 1310.06C465.138 1310.06 461.711 1309.36 458.504 1307.92L433.763 1296.84C425.439 1293.12 420.248 1284.82 420.54 1275.7L422.093 1227.01C422.165 1224.78 423.174 1222.66 424.859 1221.19C426.553 1219.72 428.813 1219 431.036 1219.24C460.391 1222.35 487.942 1219.46 501.752 1217.46C504.163 1217.11 506.58 1217.85 508.378 1219.49C510.172 1221.13 511.125 1223.46 510.994 1225.89L508.253 1276.88C507.888 1283.66 504.523 1289.83 499.023 1293.81L483.005 1305.4C478.745 1308.48 473.664 1310.06 468.552 1310.06ZM430.169 1223.68C429.296 1223.68 428.468 1223.98 427.801 1224.56C427.04 1225.23 426.603 1226.15 426.571 1227.16L425.018 1275.85C424.785 1283.14 428.936 1289.77 435.594 1292.75L460.335 1303.83C466.886 1306.77 474.568 1305.97 480.379 1301.77L496.397 1290.18C500.796 1287 503.488 1282.06 503.78 1276.64L506.521 1225.65C506.579 1224.57 506.155 1223.53 505.355 1222.8C504.553 1222.06 503.47 1221.74 502.395 1221.89C488.377 1223.92 460.405 1226.86 430.563 1223.69C430.432 1223.68 430.299 1223.68 430.169 1223.68Z" fill="black"/>
<path d="M590.117 1302.76C588.841 1302.76 587.557 1302.46 586.369 1301.86L559.125 1288.01C556.635 1286.75 554.969 1284.33 554.667 1281.56L548.523 1224.84C548.047 1220.45 551.091 1216.48 555.453 1215.81L581.193 1211.75C582.405 1211.55 583.563 1212.39 583.754 1213.61C583.947 1214.83 583.113 1215.98 581.89 1216.17L556.143 1220.23C554.147 1220.54 552.759 1222.35 552.976 1224.35L559.12 1281.07C559.258 1282.34 560.018 1283.44 561.154 1284.02L588.399 1297.87C589.646 1298.5 591.131 1298.39 592.274 1297.58L598.759 1293.2C599.786 1292.5 601.178 1292.78 601.869 1293.8C602.561 1294.82 602.292 1296.22 601.267 1296.91L594.823 1301.26C593.43 1302.25 591.78 1302.76 590.117 1302.76Z" fill="black"/>
<path d="M451.723 1720.16C445.957 1720.16 440.313 1719.81 435.422 1718.9C431.966 1718.25 429.185 1715.66 428.335 1712.3C427.429 1708.71 338.397 1351.7 396.275 1170.27C396.553 1169.39 397.333 1168.78 398.245 1168.71L461.594 1164.05C458.9 1146.25 459.36 1146.13 461.508 1145.55C461.962 1145.43 462.491 1145.45 462.985 1145.65L566.199 1137.08C567.098 1137 567.98 1137.49 568.389 1138.31C568.627 1138.79 592.345 1186.64 600.282 1236.39C600.712 1239.08 601.208 1242.26 601.775 1245.89C610.937 1304.58 638.818 1483.15 701.394 1627.7C705.345 1636.83 705.224 1646.71 701.064 1654.82C696.97 1662.8 689.524 1668.33 680.098 1670.38C673.069 1671.9 669.287 1669.95 664.495 1667.47C663.62 1667.02 662.694 1666.54 661.683 1666.05C658.146 1664.33 652.626 1659.56 652.392 1659.36C651.502 1658.62 561.267 1581.49 506.938 1391.49C492.3 1489.72 484.179 1650.07 491.378 1705.87C492.121 1711.62 488.058 1716.96 482.324 1717.76C474.84 1718.82 463.046 1720.16 451.723 1720.16ZM400.088 1173.07C343.53 1353.75 431.778 1707.63 432.679 1711.2C433.109 1712.9 434.475 1714.16 436.246 1714.49C450.115 1717.09 470.678 1714.88 481.698 1713.33C485.014 1712.86 487.362 1709.77 486.932 1706.44C479.291 1647.22 488.112 1479.71 504.093 1380.57C504.261 1379.53 505.132 1378.75 506.184 1378.69C507.233 1378.6 508.186 1379.32 508.464 1380.34C562.025 1576.13 654.366 1655.17 655.292 1655.95C656.788 1657.24 661.141 1660.81 663.636 1662.02C664.682 1662.53 665.642 1663.02 666.546 1663.49C671.156 1665.87 673.698 1667.19 679.139 1666C687.233 1664.24 693.602 1659.54 697.072 1652.77C700.619 1645.86 700.693 1637.37 697.279 1629.48C634.475 1484.41 606.527 1305.4 597.343 1246.58C596.778 1242.96 596.282 1239.79 595.853 1237.09C588.765 1192.67 568.913 1149.76 565.035 1141.67L464.277 1150.04C464.451 1152.13 464.966 1156.53 466.382 1165.77C466.477 1166.39 466.31 1167.02 465.92 1167.5C465.531 1167.99 464.955 1168.3 464.332 1168.34L400.088 1173.07Z" fill="black"/>
<path d="M684.605 1705.8C680.321 1686.22 678.544 1682.22 668.842 1667.25C661.631 1656.12 678.352 1638.84 687 1637.38C701.41 1634.15 699.179 1638.77 716.106 1659.67L729.346 1675.37C729.346 1675.37 688.348 1722.9 684.605 1705.8Z" fill="white"/>
<path d="M688.462 1711.72C687.933 1711.72 687.432 1711.67 686.96 1711.55C685.323 1711.13 683.205 1709.88 682.416 1706.27C678.117 1686.63 676.303 1682.88 666.962 1668.46C664.245 1664.27 664.131 1659.05 666.634 1653.36C670.32 1644.99 679.849 1636.31 686.628 1635.17C698.77 1632.45 700.973 1635.5 708.277 1645.63C710.678 1648.95 713.665 1653.1 717.847 1658.26L731.058 1673.92C731.768 1674.76 731.761 1676 731.043 1676.83C725.851 1682.85 700.321 1711.72 688.462 1711.72ZM686.793 1705.32C687.156 1706.98 687.813 1707.14 688.061 1707.21C694.022 1708.73 713.599 1689.94 726.397 1675.35L714.395 1661.11C710.105 1655.82 707.077 1651.62 704.645 1648.25C697.454 1638.28 696.867 1637.46 687.492 1639.57C682.586 1640.4 674.097 1647.53 670.735 1655.17C668.843 1659.47 668.84 1663.12 670.723 1666.03C680.74 1681.49 682.543 1685.89 686.793 1705.32Z" fill="black"/>
<path d="M688.462 1711.72C687.933 1711.72 687.432 1711.67 686.96 1711.55C685.323 1711.13 683.205 1709.88 682.416 1706.27C678.703 1689.31 674.291 1680.22 666.941 1668.43C666.287 1667.38 666.607 1666 667.656 1665.35C668.707 1664.69 670.089 1665.01 670.743 1666.06C678.364 1678.28 682.939 1687.71 686.793 1705.32C687.156 1706.98 687.813 1707.14 688.061 1707.21C694.006 1708.7 713.592 1689.95 726.392 1675.35L715.07 1662.04C710.002 1655.78 704.573 1647.58 702.159 1643.71C701.504 1642.67 701.823 1641.28 702.872 1640.63C703.924 1639.97 705.303 1640.29 705.958 1641.34C708.156 1644.86 713.61 1653.12 718.517 1659.18L731.052 1673.92C731.767 1674.76 731.763 1676 731.042 1676.83C725.851 1682.85 700.321 1711.72 688.462 1711.72Z" fill="black"/>
<path d="M682.186 1698.47L698.477 1672.9C706.077 1660.97 722.663 1658.91 732.946 1668.62L752.406 1684.36C752.406 1684.36 756.271 1695.35 755.234 1702.51C753.884 1711.83 751.138 1725.13 745.593 1738.36C737.06 1758.72 713.168 1799.74 704.66 1814.15C702.877 1817.17 698.334 1820.21 695.108 1818.84C691.276 1817.21 687.284 1814.22 683.414 1810.72C677.426 1805.3 678.934 1779.44 680.72 1761.43C681.865 1749.88 680.326 1720.49 679.611 1708.37C679.403 1704.88 680.305 1701.42 682.186 1698.47Z" fill="white"/>
<path d="M696.846 1821.42C695.96 1821.42 695.079 1821.26 694.229 1820.9C690.544 1819.33 686.514 1816.54 681.909 1812.38C679.982 1810.63 674.114 1805.33 678.489 1761.21C679.618 1749.82 678.084 1720.56 677.373 1708.5C677.137 1704.52 678.149 1700.63 680.296 1697.26L696.586 1671.69C700.569 1665.44 707.073 1661.33 714.429 1660.42C721.784 1659.51 729.094 1661.91 734.482 1667L753.813 1682.62C754.136 1682.88 754.38 1683.22 754.517 1683.62C754.682 1684.09 758.551 1695.22 757.449 1702.83C756.133 1711.91 753.367 1725.6 747.656 1739.23C739.198 1759.4 716.117 1799.14 706.586 1815.29C704.874 1818.2 700.814 1821.42 696.846 1821.42ZM682.186 1698.47L684.075 1699.67C682.437 1702.24 681.665 1705.21 681.845 1708.24C682.564 1720.4 684.108 1749.94 682.948 1761.65C679.201 1799.44 683.076 1807.39 684.916 1809.06C689.145 1812.88 692.767 1815.41 695.985 1816.78C697.849 1817.58 701.364 1815.33 702.731 1813.02C712.215 1796.95 735.176 1757.42 743.526 1737.49C749.056 1724.3 751.74 1711.02 753.017 1702.19C753.834 1696.55 751.239 1687.99 750.488 1685.69L731.536 1670.37C726.994 1666.08 721.005 1664.11 714.981 1664.87C708.956 1665.61 703.628 1668.98 700.365 1674.1L684.075 1699.67L682.186 1698.47Z" fill="black"/>
<path d="M680.705 1729.55C679.737 1729.55 678.845 1728.92 678.557 1727.94C678.208 1726.76 678.887 1725.51 680.074 1725.16L698.011 1719.88C699.194 1719.52 700.441 1720.21 700.792 1721.4C701.141 1722.59 700.462 1723.83 699.275 1724.18L681.338 1729.46C681.128 1729.52 680.916 1729.55 680.705 1729.55Z" fill="black"/>
<path d="M682.333 1745.62C681.365 1745.62 680.473 1744.98 680.185 1744.01C679.836 1742.82 680.515 1741.58 681.702 1741.23L699.639 1735.95C700.831 1735.6 702.07 1736.28 702.42 1737.47C702.769 1738.65 702.09 1739.9 700.903 1740.25L682.966 1745.52C682.755 1745.59 682.543 1745.62 682.333 1745.62Z" fill="black"/>
<path d="M702.116 1820.04C700.28 1820.07 698.529 1819.81 696.929 1819.29C691.515 1817.53 677.979 1813.77 679.131 1794.44C680.325 1774.4 695.36 1763.94 706.231 1750.61C714.527 1740.44 712.917 1698.56 715.436 1690.3C719.947 1675.51 741.389 1672.9 752.405 1684.36C759.36 1691.59 760.455 1707.56 760.003 1719.32C759.157 1741.34 747.014 1785.37 731.048 1806.82C723.26 1817.28 711.003 1819.88 702.116 1820.04Z" fill="white"/>
<path d="M701.789 1822.28C699.862 1822.28 697.997 1821.99 696.238 1821.42L695.759 1821.27C690.265 1819.5 675.672 1814.82 676.896 1794.3C677.862 1778.09 687.398 1767.88 696.619 1758.01C699.281 1755.16 702.033 1752.21 704.496 1749.19C709.51 1743.04 710.666 1722.62 711.51 1707.7C711.985 1699.33 712.359 1692.72 713.294 1689.65C715.429 1682.65 721.104 1677.57 728.864 1675.71C737.919 1673.55 747.792 1676.33 754.02 1682.81C762.075 1691.18 762.629 1709.33 762.241 1719.4C761.428 1740.58 749.573 1785.69 732.845 1808.16C723.935 1820.12 709.793 1822.14 702.155 1822.28C702.034 1822.28 701.91 1822.28 701.789 1822.28ZM735.09 1679.46C733.356 1679.46 731.615 1679.66 729.907 1680.07C723.731 1681.55 719.238 1685.52 717.579 1690.96C716.8 1693.51 716.403 1700.53 715.983 1707.95C715.054 1724.35 713.9 1744.75 707.967 1752.02C705.409 1755.16 702.604 1758.16 699.893 1761.07C690.813 1770.79 682.237 1779.97 681.367 1794.57C680.351 1811.61 691.266 1815.12 697.129 1817L697.62 1817.16C699.016 1817.61 700.513 1817.82 702.073 1817.8H702.075C708.891 1817.68 721.485 1815.91 729.252 1805.48C745.473 1783.69 756.974 1739.85 757.766 1719.23C758.377 1703.3 755.836 1691.16 750.791 1685.91C746.81 1681.77 741.004 1679.46 735.09 1679.46Z" fill="black"/>
<path d="M701.805 1822.28C696.976 1822.28 692.574 1820.46 689.682 1817.26C687.051 1814.35 685.872 1810.49 686.364 1806.4C688.871 1785.5 700.008 1774.42 711.798 1762.7C720.824 1753.72 722.698 1722.35 723.598 1707.27C723.934 1701.65 724.11 1698.89 724.446 1697.57C726.035 1691.31 733.939 1685.38 742.067 1684.33C749.637 1683.37 756.112 1686.68 759.84 1693.43C760.438 1694.51 760.044 1695.87 758.962 1696.47C757.875 1697.07 756.515 1696.67 755.918 1695.59C752.29 1689.01 746.701 1688.26 742.637 1688.78C735.732 1689.66 729.797 1694.7 728.788 1698.67C728.542 1699.64 728.323 1703.3 728.07 1707.54C727.065 1724.37 725.194 1755.69 714.956 1765.87C703.246 1777.52 693.132 1787.58 690.81 1806.93C690.471 1809.76 691.23 1812.29 693.005 1814.26C695.097 1816.57 698.358 1817.86 702.074 1817.8C704.081 1817.76 706.067 1817.6 707.977 1817.32C709.189 1817.15 710.339 1817.98 710.521 1819.2C710.703 1820.43 709.857 1821.57 708.633 1821.75C706.534 1822.06 704.354 1822.24 702.155 1822.28C702.039 1822.28 701.922 1822.28 701.805 1822.28Z" fill="black"/>
<path d="M519.492 826.415L508.839 767.945L461.202 780.2L467.777 820.907L519.492 826.415Z" fill="white"/>
<path d="M519.493 828.654C519.414 828.654 519.335 828.65 519.256 828.641L467.54 823.133C466.536 823.026 465.727 822.26 465.566 821.263L458.992 780.557C458.807 779.415 459.525 778.319 460.646 778.031L508.282 765.775C508.881 765.622 509.522 765.723 510.047 766.059C510.571 766.394 510.932 766.932 511.043 767.542L521.697 826.012C521.824 826.708 521.615 827.421 521.135 827.939C520.708 828.398 520.112 828.654 519.493 828.654ZM469.714 818.861L516.751 823.87L507.066 770.714L463.739 781.861L469.714 818.861Z" fill="black"/>
<path d="M469.585 689.207C486.612 691.517 488.929 710.737 509.276 712.996C518.6 714.031 523.283 710.57 531.544 714.538C537.015 717.165 544.975 723.493 545.788 731.867C546.824 742.532 535.132 744.834 523.188 765.36C514.8 779.776 514.289 789.428 507.618 790.471C500.872 791.526 497.856 782.211 490.401 782.81C480.753 783.584 479.493 799.69 469.311 804.492C462.893 807.519 449.451 806.888 430.479 792.677C427.404 790.374 426.407 786.2 428.118 782.761C430.311 778.354 433.112 772.802 436.233 767.721C451.108 743.506 461.608 739.419 459.538 731.994C456.365 720.617 435.486 722.725 433.879 713.574C432.209 704.071 452.102 686.835 469.585 689.207Z" fill="black"/>
<path d="M497.229 738.658L492.7 736.302C492.7 736.302 478.013 766.959 472.267 774.812C466.52 782.665 440.851 766.712 440.851 766.712L440.222 761.05L437.152 759.05C436.2 758.43 435.58 757.412 435.465 756.282C435.35 755.152 435.753 754.03 436.56 753.231C442.754 747.092 455.897 733.159 462.285 719.599C462.285 719.599 483.891 718.318 497.229 738.658Z" fill="white"/>
<path d="M498.89 740.16C497.914 740.036 496.711 739.994 495.366 739.714C494.023 739.442 492.713 738.897 491.639 738.341L494.774 737.295C491.968 743.179 489.153 749.036 486.187 754.839C483.22 760.645 480.224 766.419 476.867 772.121C475.981 773.569 475.169 774.911 474.027 776.464C473.265 777.442 472.207 778.176 471.154 778.62C470.093 779.061 469.044 779.249 468.051 779.333C464.094 779.552 460.788 778.512 457.567 777.442C451.177 775.145 445.376 772.085 439.659 768.631C439.044 768.26 438.675 767.624 438.605 766.961C438.42 765.07 438.166 763.188 438.04 761.291L439.023 762.889C438.133 762.237 437.306 761.488 436.448 760.786C436.277 760.635 435.953 760.398 435.652 760.098C435.362 759.815 435.119 759.492 434.893 759.167C434.45 758.508 434.149 757.767 433.992 757.003C433.676 755.473 434.043 753.808 435.026 752.58C435.607 751.896 435.866 751.7 436.286 751.253L437.428 750.078C440.478 746.946 443.379 743.669 446.134 740.286C448.891 736.906 451.495 733.411 453.888 729.806C456.284 726.207 458.5 722.501 460.268 718.646L460.286 718.607C460.634 717.848 461.374 717.393 462.155 717.369C466.056 717.259 469.545 717.803 473.118 718.683C476.649 719.575 480.074 720.903 483.287 722.644C486.506 724.374 489.489 726.542 492.169 729.025C493.474 730.303 494.749 731.613 495.885 733.036C496.483 733.724 497.005 734.469 497.558 735.19L497.763 735.462C497.856 735.59 498.003 735.81 498.117 736.004C498.36 736.41 498.59 736.898 498.736 737.424C499.045 738.504 498.926 739.524 498.89 740.16ZM495.568 737.156C495.04 737.081 494.431 737.389 494.249 737.758C494.15 737.929 494.133 738.06 494.13 738.11C494.121 738.126 494.148 738.167 494.114 738.12L493.925 737.877C493.414 737.234 492.935 736.564 492.386 735.955C491.345 734.686 490.181 733.532 489 732.406C486.614 730.179 483.968 728.23 481.097 726.671C478.234 725.099 475.165 723.89 471.991 723.071C468.864 722.254 465.44 721.778 462.418 721.826L464.305 720.55C460.242 728.77 454.701 735.882 448.842 742.584C445.881 745.913 442.839 749.155 439.72 752.322L437.501 754.548C437.1 755.041 436.909 755.727 437.065 756.355C437.136 756.669 437.303 756.956 437.527 757.174C437.634 757.288 437.772 757.368 437.903 757.441L438.458 757.703C439.448 758.204 440.467 758.658 441.423 759.209C441.952 759.514 442.284 760.029 442.374 760.588L442.409 760.807C442.701 762.686 442.866 764.578 443.101 766.463L442.048 764.793C447.459 768 453.243 770.965 459.103 772.997C462.001 773.97 465.093 774.758 467.656 774.557C468.931 774.44 469.824 774.052 470.266 773.462C471.044 772.399 471.941 770.977 472.743 769.654C475.983 764.169 478.98 758.418 481.927 752.668C484.862 746.906 487.796 741.12 490.631 735.311L490.644 735.283C491.197 734.149 492.566 733.679 493.7 734.232L493.766 734.265C494.201 734.496 494.401 734.736 494.567 735.249C494.727 735.751 495.034 736.494 495.568 737.156Z" fill="black"/>
<path d="M487.566 761.081C487.566 761.081 499.377 746.627 504.817 753.392C510.257 760.157 496.855 775.742 487.566 761.081Z" fill="white"/>
<path d="M686.968 1202.55C686.968 1202.55 683.28 1238.93 689.622 1252.07C695.964 1265.22 737.181 1290.36 737.181 1290.36C737.181 1290.36 749.677 1282.38 737.181 1272.17C724.686 1261.97 719.64 1253.48 719.64 1253.48C719.64 1253.48 722.2 1214.78 716.593 1206.75C710.986 1198.72 686.968 1202.55 686.968 1202.55Z" fill="white"/>
<path d="M737.181 1292.59C736.777 1292.59 736.373 1292.49 736.015 1292.27C734.309 1291.23 694.158 1266.63 687.603 1253.05C681.063 1239.48 684.585 1203.84 684.739 1202.33C684.842 1201.32 685.612 1200.5 686.615 1200.34C689.217 1199.93 712.199 1196.55 718.429 1205.47C724.051 1213.52 722.324 1246.41 721.923 1252.89C723.259 1254.9 728.398 1262.1 738.599 1270.44C743.055 1274.08 745.194 1277.97 744.958 1282.01C744.596 1288.21 738.641 1292.08 738.387 1292.24C738.019 1292.48 737.6 1292.59 737.181 1292.59ZM689.039 1204.52C688.417 1211.84 686.41 1240.26 691.639 1251.1C696.424 1261.02 724.863 1280.1 737.042 1287.64C738.329 1286.53 740.341 1284.38 740.486 1281.73C740.624 1279.21 739.036 1276.58 735.763 1273.91C723.107 1263.57 717.928 1254.98 717.715 1254.62C717.483 1254.23 717.375 1253.78 717.404 1253.33C718.373 1238.67 718.511 1213.41 714.755 1208.03C711.478 1203.34 697.929 1203.35 689.039 1204.52Z" fill="black"/>
<path d="M228.335 702.653L231.229 683.396C232.046 677.959 231.022 672.404 228.32 667.616L200.743 618.744C199.586 616.693 196.751 616.253 195.119 617.951C192.358 620.826 189.644 626.094 193.573 634.348L200.059 646.691C201.494 649.421 200.702 652.746 198.265 654.636C194.502 657.554 189.568 662.763 188.522 670.523C185.684 691.575 208.824 706.752 208.824 706.752L228.335 702.653Z" fill="white"/>
<path d="M208.823 708.992C208.39 708.992 207.962 708.867 207.595 708.624C206.602 707.974 183.309 692.42 186.301 670.224C187.44 661.783 192.688 656.126 196.891 652.867C198.489 651.627 198.987 649.47 198.074 647.733L191.588 635.389C186.876 625.495 190.767 619.25 193.501 616.4C194.753 615.098 196.503 614.477 198.321 614.711C200.153 614.943 201.787 616.039 202.693 617.644L230.27 666.515C233.202 671.712 234.329 677.826 233.442 683.728L230.549 702.984C230.41 703.909 229.71 704.651 228.795 704.843L209.283 708.942C209.131 708.976 208.976 708.992 208.823 708.992ZM197.591 619.145C197.35 619.145 197.016 619.208 196.735 619.502C193.298 623.083 192.915 627.755 195.595 633.386L202.041 645.651C203.965 649.311 202.954 653.836 199.637 656.407C196.095 659.154 191.677 663.884 190.742 670.824C188.406 688.151 205.505 701.601 209.313 704.361L226.351 700.78L229.013 683.064C229.752 678.145 228.813 673.05 226.368 668.717L198.791 619.846C198.485 619.301 197.967 619.181 197.759 619.155C197.711 619.15 197.654 619.145 197.591 619.145Z" fill="black"/>
<path d="M724.892 1208.83H677.174C677.174 1208.83 666.856 1039.38 575.911 984.544L582.854 848.28C582.854 848.28 773.504 954.338 724.892 1208.83Z" fill="black"/>
<path d="M574.744 1021.54L610.395 1190.94C610.395 1190.94 465.21 1215.84 414.614 1206.75C364.018 1197.67 358.105 1184.32 358.105 1184.32L379.493 998.01L574.744 1021.54Z" fill="white"/>
<path d="M444.172 1211C432.513 1211 422.235 1210.4 414.219 1208.96C363.905 1199.92 356.713 1186.71 356.059 1185.23C355.897 1184.87 355.836 1184.46 355.881 1184.07L377.269 997.753C377.338 997.16 377.639 996.62 378.107 996.25C378.574 995.88 379.164 995.712 379.763 995.784L575.013 1019.31C575.966 1019.43 576.739 1020.14 576.937 1021.07L612.589 1190.48C612.715 1191.07 612.592 1191.69 612.25 1192.2C611.908 1192.7 611.376 1193.04 610.776 1193.15C605.775 1194 505.816 1211 444.172 1211ZM360.419 1183.81C362.037 1186.01 371.976 1196.82 415.01 1204.55C461.187 1212.84 588.982 1192.23 607.722 1189.12L572.882 1023.57L381.462 1000.5L360.419 1183.81Z" fill="black"/>
<path d="M509.621 825.262L582.853 848.279L614.533 1090.82C616.045 1102.39 609.38 1113.5 598.427 1117.53C563.343 1130.46 480.468 1153.29 366.024 1135.61C354.068 1133.76 345.164 1123.58 344.862 1111.49C343.846 1070.83 343.1 979.583 354.599 927.162C354.599 927.162 193.141 927.017 202.482 708.813L236.255 699.592C236.255 699.592 293.012 827.836 390.975 822.875C390.975 822.875 456.572 808.589 509.621 825.262Z" fill="black"/>
<path d="M447.082 820.071C447.082 820.071 510.526 814.029 560.992 824.006C590.901 829.919 647.638 851.982 604.334 896.5C561.03 941.017 531.22 936.782 516.941 911.875C502.662 886.969 477.196 829.357 447.082 820.071Z" fill="white"/>
<path d="M546.181 932.627C544.68 932.627 543.209 932.537 541.762 932.354C530.715 930.961 521.46 924.265 514.997 912.989C512.56 908.739 509.748 903.445 506.772 897.843C492.347 870.688 470.548 829.652 446.421 822.213C445.399 821.898 444.743 820.905 444.853 819.844C444.961 818.781 445.806 817.943 446.869 817.842C447.506 817.779 511.217 811.884 561.425 821.808C570.012 823.508 613.242 833.255 621.099 858.478C624.857 870.539 619.756 883.859 605.939 898.061C583.848 920.771 563.305 932.627 546.181 932.627ZM456.003 821.648C478.37 834.827 497.554 870.939 510.729 895.74C513.688 901.311 516.483 906.572 518.885 910.761C524.622 920.768 532.727 926.699 542.323 927.91C558.855 929.973 579.72 918.589 602.729 894.937C615.312 882.001 620.055 870.182 616.824 859.809C611.316 842.128 583.071 830.655 560.558 826.204C521.928 818.564 475.081 820.428 456.003 821.648Z" fill="black"/>
<path d="M579.116 876.697C562.751 876.699 543.781 868.706 521.844 852.664C503.637 839.347 498.446 838.853 497.806 838.85C496.799 839.117 495.713 838.657 495.227 837.691C494.671 836.586 495.117 835.239 496.222 834.683C499.513 833.018 509.557 838.128 524.488 849.046C559.379 874.564 585.016 878.992 605.167 862.969C606.132 862.201 607.544 862.359 608.314 863.33C609.084 864.299 608.923 865.708 607.954 866.478C599.389 873.284 589.808 876.697 579.116 876.697Z" fill="black"/>
<path d="M1215.9 1639.61C1212.77 1639.61 1209.63 1639.03 1206.62 1637.86C1200.08 1635.31 1194.92 1630.31 1192.1 1623.78C1186.34 1610.43 1192.31 1594.79 1205.41 1588.9C1211.71 1586.07 1218.72 1585.89 1225.16 1588.39C1231.71 1590.94 1236.86 1595.94 1239.68 1602.48C1245.44 1615.83 1239.47 1631.47 1226.38 1637.35C1223.02 1638.86 1219.46 1639.61 1215.9 1639.61ZM1207.24 1592.99C1196.36 1597.88 1191.42 1610.89 1196.21 1622C1198.55 1627.43 1202.83 1631.57 1208.25 1633.68C1213.55 1635.75 1219.34 1635.6 1224.54 1633.26C1235.42 1628.38 1240.37 1615.36 1235.57 1604.25C1233.23 1598.83 1228.96 1594.68 1223.53 1592.57C1218.23 1590.51 1212.44 1590.66 1207.24 1592.99Z" fill="black"/>
<path d="M1692.82 498.958C1682.47 498.958 1674.06 490.545 1674.06 480.203C1674.06 469.863 1682.47 461.45 1692.82 461.45C1703.16 461.45 1711.57 469.863 1711.57 480.203C1711.57 490.545 1703.16 498.958 1692.82 498.958ZM1692.82 465.93C1684.95 465.93 1678.54 472.333 1678.54 480.203C1678.54 488.073 1684.95 494.478 1692.82 494.478C1700.69 494.478 1707.09 488.073 1707.09 480.203C1707.09 472.332 1700.69 465.93 1692.82 465.93Z" fill="black"/>
<path d="M926.083 14.6948C925.831 14.6948 925.574 14.6538 925.324 14.5618C924.16 14.1438 923.557 12.8598 923.975 11.6958L927.652 1.48277C928.072 0.321766 929.354 -0.289226 930.519 0.134774C931.683 0.552774 932.286 1.83677 931.868 3.00077L928.191 13.2138C927.861 14.1268 927 14.6948 926.083 14.6948Z" fill="black"/>
<path d="M913.212 50.4418C912.96 50.4418 912.703 50.3998 912.453 50.3088C911.289 49.8908 910.686 48.6068 911.104 47.4438L914.781 37.2308C915.201 36.0698 916.483 35.4568 917.648 35.8838C918.812 36.3018 919.415 37.5858 918.997 38.7498L915.32 48.9628C914.99 49.8738 914.13 50.4418 913.212 50.4418Z" fill="black"/>
<path d="M908.976 22.7468C908.714 22.7468 908.447 22.7008 908.186 22.6028L898.177 18.8318C897.019 18.3968 896.435 17.1038 896.871 15.9468C897.306 14.7898 898.595 14.1988 899.756 14.6408L909.765 18.4118C910.923 18.8468 911.507 20.1398 911.071 21.2968C910.734 22.1938 909.881 22.7468 908.976 22.7468Z" fill="black"/>
<path d="M944.004 35.9487C943.742 35.9487 943.475 35.9027 943.214 35.8047L933.205 32.0337C932.047 31.5987 931.463 30.3058 931.899 29.1488C932.334 27.9918 933.623 27.4058 934.784 27.8428L944.793 31.6137C945.951 32.0487 946.535 33.3417 946.099 34.4987C945.762 35.3947 944.91 35.9487 944.004 35.9487Z" fill="black"/>
<path d="M1626.13 438.427C1625.41 438.427 1624.7 438.077 1624.27 437.432C1494.76 243.631 1213.79 106.819 1210.96 105.46C1209.85 104.922 1209.38 103.583 1209.92 102.47C1210.46 101.355 1211.79 100.889 1212.91 101.422C1213.62 101.763 1284.76 136.206 1371.02 194.241C1450.68 247.833 1559.93 333.096 1627.99 434.943C1628.68 435.971 1628.4 437.362 1627.38 438.049C1626.99 438.305 1626.56 438.427 1626.13 438.427Z" fill="black"/>
<path d="M1672.02 437.719C1671.24 437.719 1670.48 437.308 1670.07 436.575C1581.57 278.709 1345.6 134.54 1343.23 133.103C1342.17 132.462 1341.83 131.084 1342.47 130.025C1343.11 128.971 1344.49 128.632 1345.55 129.27C1347.93 130.714 1584.9 275.482 1673.97 434.382C1674.58 435.463 1674.19 436.827 1673.11 437.431C1672.77 437.627 1672.39 437.719 1672.02 437.719Z" fill="black"/>
<path d="M1112.98 113.917C1112.95 113.917 1112.91 113.917 1112.88 113.915C1112.14 113.88 1111.47 113.484 1111.08 112.856L1081.12 64.4328C1080.67 63.7018 1080.68 62.7788 1081.13 62.0548C1081.59 61.3328 1082.42 60.9368 1083.28 61.0268L1144.67 67.9328C1145.47 68.0248 1146.16 68.5368 1146.48 69.2758C1146.79 70.0148 1146.69 70.8708 1146.2 71.5118L1114.77 113.029C1114.35 113.589 1113.68 113.917 1112.98 113.917ZM1087.36 65.9948L1113.17 107.72L1140.26 71.9448L1087.36 65.9948Z" fill="black"/>
<path d="M1106.97 1650.28C1106.86 1650.28 1106.75 1650.27 1106.64 1650.26C1105.42 1650.08 1104.57 1648.94 1104.75 1647.72L1106.74 1634.06C1106.92 1632.84 1108.05 1631.96 1109.28 1632.17C1110.5 1632.35 1111.35 1633.48 1111.17 1634.71L1109.18 1648.36C1109.02 1649.48 1108.06 1650.28 1106.97 1650.28Z" fill="black"/>
<path d="M1100.01 1698.06C1099.9 1698.06 1099.8 1698.06 1099.69 1698.04C1098.46 1697.86 1097.61 1696.72 1097.79 1695.5L1099.78 1681.85C1099.96 1680.62 1101.1 1679.75 1102.32 1679.95C1103.54 1680.13 1104.39 1681.27 1104.21 1682.49L1102.23 1696.15C1102.06 1697.26 1101.11 1698.06 1100.01 1698.06Z" fill="black"/>
<path d="M1087.42 1664.84C1087.31 1664.84 1087.2 1664.84 1087.09 1664.82L1073.44 1662.82C1072.22 1662.64 1071.37 1661.5 1071.55 1660.28C1071.73 1659.05 1072.86 1658.2 1074.09 1658.39L1087.74 1660.39C1088.97 1660.57 1089.81 1661.7 1089.64 1662.93C1089.47 1664.04 1088.52 1664.84 1087.42 1664.84Z" fill="black"/>
<path d="M1135.2 1671.84C1135.09 1671.84 1134.98 1671.84 1134.87 1671.82L1121.22 1669.82C1120 1669.64 1119.15 1668.5 1119.33 1667.28C1119.51 1666.06 1120.65 1665.19 1121.87 1665.39L1135.52 1667.39C1136.75 1667.57 1137.59 1668.7 1137.41 1669.93C1137.25 1671.04 1136.29 1671.84 1135.2 1671.84Z" fill="black"/>
</svg>
